<?xml version="1.0" encoding="UTF-8"?>
<svg xmlns="http://www.w3.org/2000/svg" xmlns:xlink="http://www.w3.org/1999/xlink" viewBox="0 0 446.56 228.47">
  <defs>
    <style>
      .cls-1 {
        fill: #fab982;
      }

      .cls-2 {
        fill: #fff;
      }

      .cls-3, .cls-4 {
        opacity: .51;
      }

      .cls-5 {
        opacity: .14;
      }

      .cls-5, .cls-4, .cls-6 {
        fill: #885d3d;
      }

      .cls-7 {
        fill: #6a9955;
      }

      .cls-8 {
        fill: url(#linear-gradient);
        mix-blend-mode: screen;
      }

      .cls-9 {
        isolation: isolate;
      }

      .cls-10 {
        fill: #e2d1a1;
      }

      .cls-11 {
        fill: #f26b6b;
      }

      .cls-12 {
        fill: #a2785b;
      }

      .cls-13 {
        fill: #dcdcaa;
      }

      .cls-14 {
        fill: #e5b28c;
      }

      .cls-15 {
        fill: #474b4d;
      }

      .cls-16 {
        fill: #a0a0a0;
        opacity: .25;
      }

      .cls-17 {
        fill: #303435;
      }

      .cls-18 {
        fill: #47a8b8;
      }

      .cls-19 {
        fill: #4ec9b0;
      }

      .cls-20 {
        fill: #ffd70a;
      }

      .cls-21 {
        fill: #f23030;
      }

      .cls-22 {
        fill: #595959;
      }

      .cls-23 {
        fill: #4fc1ff;
      }

      .cls-24 {
        fill: #569cd6;
      }

      .cls-25 {
        fill: #664f44;
      }
    </style>
    <linearGradient id="linear-gradient" x1="348.61" y1="198.38" x2="347.46" y2=".23" gradientUnits="userSpaceOnUse">
      <stop offset="0" stop-color="#fff87f"/>
      <stop offset=".06" stop-color="#f9f27c" stop-opacity=".98"/>
      <stop offset=".13" stop-color="#eae474" stop-opacity=".92"/>
      <stop offset=".21" stop-color="#d1cc68" stop-opacity=".82"/>
      <stop offset=".29" stop-color="#afaa57" stop-opacity=".69"/>
      <stop offset=".38" stop-color="#827e40" stop-opacity=".51"/>
      <stop offset=".47" stop-color="#4b4925" stop-opacity=".3"/>
      <stop offset=".56" stop-color="#0c0b06" stop-opacity=".05"/>
      <stop offset=".58" stop-color="#000" stop-opacity="0"/>
    </linearGradient>
  </defs>
  <g class="cls-9">
    <g id="Layer_2" data-name="Layer 2">
      <g id="Layer_1-2" data-name="Layer 1">
        <g>
          <path class="cls-12" d="m63.1,216.93c3.72,0,7.44,0,11.17-.01,5.98.05,289.8.05,294.5,0,3.02,0,6.03,0,9.05-.01,21.33.02,42.66.04,63.99.06,5.15,0,5.31.14,4.17,2.31-1,1.9-3.24,3.4-6.84,4.47-1.74.52-2.59,1.03-2.07,2.05.77,1.54-1.58,2.24-4.47,2.58-1.26.15-2.67.06-4.01.06-119.95,0-239.89-.02-359.84-.03-10.46,0-20.93.03-31.39.04-7.45,0-14.91.01-22.36-.03-4.56-.03-6.55-1.04-6.02-3.06.23-.87-.29-1.27-2.02-1.82-3.99-1.3-6.41-3.11-6.93-5.43-.23-1.01.57-1.13,2.29-1.13,3.89,0,7.78,0,11.67,0,16.37-.01,32.74-.03,49.1-.04Z"/>
          <path class="cls-15" d="m288.51,217.06c-.38-2.15,1.16-2.51,2.7-2.87.45.11.91.2,1.18.65,1.84,1.48,3.96,2.06,6.29,2.06,15.83,0,31.65,0,47.48,0,16.44,0,32.88,0,49.33,0,2.3,0,4.39-.73,6.26-2.06-.07-1.01.79-.5,1.2-.73,1.47.46,2.97.89,2.64,2.95.03,2.17-1.61,2.31-3.09,2.34-3.59.09-7.17.04-10.76.04-32.83,0-65.66,0-98.49-.01-1.18,0-2.37.14-3.52-.43-.86-.43-1.33-.96-1.2-1.94Z"/>
          <path class="cls-18" d="m406.77,195.32c0-.32,0-.64,0-.96.19.32.2.64,0,.96Z"/>
          <path class="cls-18" d="m406.76,145.36c0-.18-.01-.36-.02-.54.19.17.18.35.02.54Z"/>
          <path class="cls-18" d="m406.87,196.4c-.07.04-.14.06-.22.06.01-.11.05-.21.12-.29.09.05.12.13.11.24Z"/>
          <path class="cls-17" d="m401.74,214.82c-1.87,1.34-3.95,2.06-6.26,2.06-16.44,0-32.88,0-49.33,0-15.83,0-31.65,0-47.48,0-2.33,0-4.45-.58-6.29-2.06,2.13.7,4.33.71,6.55.71,31.42-.02,62.84-.02,94.26,0,2.87,0,5.74.11,8.54-.71Z"/>
          <g>
            <g>
              <polygon class="cls-1" points="191.8 193.7 191.8 193.7 191.8 193.71 191.8 193.7"/>
              <path class="cls-21" d="m215.61,211.69c-.07-3.85-.02-7.7-.02-11.55,0-.59,0-1.19-.05-1.78-.07-.79-.01-1.59-.07-2.39-.04-.6,0-1.22-.09-1.81-.06-.4-.04-.83-.3-1.2-.38-.54-.94-.78-1.52-1-1.04-.4-2.13-.59-3.22-.76-.9-.14-1.8-.19-2.7-.32-.78-.11-1.59-.12-2.37-.12-1.18,0-2.34-.14-3.53-.05-1.13.09-2.28.1-3.42.16-.53.03-1.07.06-1.59.15-.82.13-1.64.21-2.45.38-.97.21-1.94.42-2.84.88-.54.27-1.03.64-1.17,1.24-.13.56-.19,1.14-.15,1.73.02.25-.11.48-.08.73.02.15-.11.1-.19.11-.29.02-.58.02-.87.06-1.19.14-2.3.48-3.34,1.09-1.27.75-2.24,1.77-2.92,3.07-.83,1.59-1.09,3.28-.75,5.05.34,1.82,1.24,3.32,2.63,4.5,1.49,1.27,3.26,1.89,5.23,1.89.22,0,.28.05.28.28-.01,1.05,0,2.1,0,3.15,0,.96.01,1.92,0,2.88-.01.72.33,1.19.95,1.5,1,.51,2.1.62,3.17.8,1.08.18,2.16.31,3.25.43,1.07.12,2.15.18,3.23.24.97.05,1.95.05,2.93-.03.94-.07,1.89-.01,2.83-.08.87-.06,1.74-.07,2.61-.14,1.08-.09,2.16-.21,3.22-.42.86-.17,1.71-.36,2.49-.79.57-.31.89-.77.87-1.44-.05-2.14-.01-4.28-.05-6.42Zm-25.51-2.84c0,.41-.2.59-.62.51-.47-.09-.94-.18-1.39-.36-1.56-.61-2.73-1.65-3.41-3.21-.4-.91-.49-1.86-.35-2.85.19-1.36.83-2.47,1.83-3.36.84-.75,1.82-1.27,2.96-1.41.04,0,.08-.03.12-.05.65-.16.79-.05.79.61,0,1.3,0,2.6,0,3.89,0,1.39-.03,2.78.01,4.16.02.68.04,1.37.05,2.05Zm.23,8.97c-.02.1-.03.2-.03.29,0-.09,0-.19.03-.3,0-.08,0-.16,0-.25.06.08.06.16,0,.25Zm1.32.34c0,.07-.06.13-.13.12-.1-.01-.15-.09-.18-.18-.14-.38-.22-.78-.28-1.18-.18-1.34-.29-2.68-.36-4.02-.02-.39-.03-.79-.05-1.18-.09-1.34-.06-2.68-.07-4.02,0-.96.05-1.92,0-2.88-.12-1.96-.08-3.93-.03-5.89.02-.9-.1-1.83.18-2.72.04-.14.06-.33.24-.32.16,0,.16.19.17.32.06.97.18,1.94.08,2.92-.08.81,0,1.63-.02,2.44-.1,2.53-.07,5.05-.05,7.58,0,1.47.12,2.94.26,4.41.09.89.11,1.79.22,2.68.05.4,0,.81.11,1.21.07.24-.04.47-.07.7Zm14.45-22.83s-.07,0-.1,0c-1.53.02-3.07.14-4.6.06-1.36-.08-2.71-.1-4.07-.24-1.34-.14-2.67-.29-3.98-.63-.42-.11-.82-.26-1.2-.44-.16-.08-.32-.17-.35-.38-.02-.02-.04-.05-.07-.07-.25-.52-.09-.88.56-1.12.84-.32,1.72-.5,2.61-.64,1.1-.18,2.2-.27,3.31-.39.37-.04.74-.05,1.1-.06,1.74-.08,3.49-.13,5.24-.07.97.03,1.95.05,2.92.14,1.64.16,3.3.28,4.9.73.45.13.9.25,1.3.5.46.29.48.74.03,1.07-.13.1-.28.18-.42.27-.03.2-.2.22-.34.27-1.08.35-2.2.52-3.32.68-1.17.16-2.35.2-3.52.33Zm9.14,22.1c0,.3-.03.6-.07.9-.04.3-.24.5-.48.66-.68.45-1.45.64-2.23.81-.92.2-1.86.26-2.79.4-.32.05-.65.03-.98.04-.67.04-1.34.15-2.01.05.54-.21,1.11-.21,1.67-.28,1.5-.16,2.99-.32,4.42-.84.63-.23,1.28-.51,1.53-1.26.05-.14.07-.28.07-.43,0-1.05,0-2.1,0-3.15,0-.99.04-1.98.14-2.96.02-.18.03-.44.2-.46.22-.04.22.24.27.4.14.39.17.82.19,1.22.12,1.63.08,3.27.07,4.9Z"/>
            </g>
            <path class="cls-11" d="m190.58,207.7c0-.96.05-1.92,0-2.88-.12-1.96-.08-3.93-.03-5.89.02-.9-.1-1.83.18-2.72.04-.14.06-.33.24-.32.16,0,.16.19.17.32.06.97.18,1.94.08,2.92-.08.81,0,1.63-.02,2.44-.1,2.53-.07,5.05-.05,7.58,0,1.47.12,2.94.26,4.41.09.89.11,1.79.22,2.68.05.4,0,.81.11,1.21.07.24-.04.47-.07.7,0,.07-.06.13-.13.12-.1-.01-.15-.09-.18-.18-.14-.38-.22-.78-.28-1.18-.18-1.34-.29-2.68-.36-4.02-.02-.39-.03-.79-.05-1.18-.09-1.34-.06-2.68-.07-4.02Z"/>
            <path class="cls-11" d="m206.69,220.29c.54-.21,1.11-.21,1.67-.28,1.5-.16,2.99-.32,4.42-.84.63-.23,1.28-.51,1.53-1.26.05-.14.07-.28.07-.43,0-1.05,0-2.1,0-3.15,0-.99.04-1.98.14-2.96.02-.18.03-.44.2-.46.22-.04.22.24.27.4.14.4.17.82.19,1.22.12,1.63.08,3.27.07,4.9,0,.3-.03.6-.07.9-.04.3-.24.5-.48.66-.68.45-1.45.64-2.23.81-.92.2-1.86.26-2.79.4-.32.05-.65.03-.98.04-.67.04-1.34.15-2.01.05Z"/>
            <path class="cls-11" d="m213.67,192.71c-.4-.25-.85-.37-1.3-.5-1.6-.45-3.26-.57-4.9-.73-.97-.09-1.95-.11-2.92-.14-1.74-.06-3.49,0-5.24.07-.37.02-.74.02-1.1.06-1.1.12-2.21.21-3.31.39-.89.14-1.77.33-2.61.64-.65.24-.82.61-.56,1.12.02.02.04.05.07.07.02.21.18.3.35.38.39.18.79.33,1.2.44,1.31.33,2.64.48,3.98.63,1.35.15,2.71.17,4.07.24,1.53.09,3.07-.04,4.6-.06.03,0,.07,0,.1,0,1.17-.12,2.35-.17,3.52-.33,1.12-.15,2.24-.33,3.32-.68.15-.05.32-.07.34-.27.14-.09.29-.17.42-.27.44-.34.43-.78-.03-1.07Z"/>
          </g>
          <g>
            <path class="cls-14" d="m368.3,112.77c5.29,1.63,10.79,2.28,16.15,3.54,5.91,1.39,12.05,2.08,17.76,4.04,6.32,2.17,11.04,6.51,12.19,13.66-4.8,1.85-9.96,1.24-14.9,2.13-1.83-.39-3.66-.04-5.48-.06-10.97-.12-21.94.46-32.9-.3-2.44-.12-4.83-.52-7.21-1.1-13.48-3.26-24.54-10.29-33.12-21.19,4.32-.8,6.84-3.29,7.53-7.69.16-1.02-.08-1.98.05-2.96.46-3.35.73-6.72.7-10.11,0-1.01.08-1.99.26-3.01.39-2.25.28-4.33-1.45-6.31-3.07-3.51-5.76-7.34-8.68-10.99-2.33-2.92-4.62-5.83-5.19-9.68-.1-.7-.63-1.14-.97-1.69-2.8-4.58-3.69-9.57-3.19-14.87,1.25,3.05,2.13,6.23,3.65,9.35,1-14.77,5.79-33.4,15.64-36.99,4.3-3.34,33.89-3.93,34.51-3.04,1.89,2.69,11.5,19.16,12.42,23.95,1,5.23.74,11.23,1.19,16.77,2.05-1.67,2.81-4.07,4.77-6.03-.53,4.35-1.43,8.14-4.08,11.29-.52.61-.94,1.2-1.07,2.01-.39,2.42-1.51,4.51-3.01,6.43-3.72,4.76-7.34,9.61-11.17,14.29-1.29,1.57-1.5,3.2-1.31,5,.41,3.79.6,7.59.76,11.39.14,3.43.42,6.87,2.41,9.91.92,1.41,2.08,2.22,3.75,2.27Zm-29.8-64.7c-1.65-1.61-3.81-1.65-5.81-2.05-2.35-.47-4.74-.62-7.12-.16-.44.09-1.08.16-.99.78.1.65.66.7,1.27.6,4.26-.71,8.36.73,12.65.83Zm16.9-.08c4.03-.23,7.9-1.3,11.87-.78.68.09,1.51.32,1.63-.53.13-.92-.89-.84-1.45-.9-3.8-.43-7.52.05-11.11,1.37-.36.13-.81.27-.94.84Z"/>
            <path class="cls-21" d="m415.9,216.92c-1.35,0-2.69,0-4.04.01,3.4-2,5.54-4.61,6.16-8.82.71-4.81-3.5-11.11-8.36-11.31-.96-.04-1.89-.05-2.79-.41.02-.11-.02-.18-.11-.24,0-.28,0-.56,0-.84.2-.32.19-.64,0-.96,0-16.33,0-32.66-.01-48.99.16-.18.17-.36-.02-.53-.38-2.63-1.16-4.95-3.49-6.66-1.19-.87-66.6.23-67.63-.83,4.94-.89,43.7-12.7,48.97-21.72,3.09,1.34,21.09,3.05,26.46,10.62,9.61,13.53,9.83,36.41,10.42,41.02,1.14,9.08,1.52,18.17,1.54,27.29,0,4.55-1.56,8.73-2.9,12.95-1.05,3.29-2.17,6.55-4.21,9.4Z"/>
            <path class="cls-21" d="m319.33,113.82c.48-.11.97-.22,1.45-.34,8.58,10.91,19.64,17.93,33.12,21.19,2.38.58,4.77.98,7.21,1.1-.45.58-1.09.38-1.66.38-20.75,0-41.5,0-62.25.01-5.89,0-9.85,4.03-9.84,9.95.02,16.27.02,32.53.03,48.8,0,.65.1,1.32-.39,1.86-1.14.01-2.27.02-3.41.05-6.25.14-10.94,6.39-9.21,12.77.91,3.38,3.07,5.74,6.13,7.32-1.66,0-3.32,0-4.98.01-2.66-4.14-4.41-8.65-5.48-13.44-.27-1.22-.55-2.46-1.07-3.58-.83-1.79-.64-3.63-.66-5.48-.08-6.7.05-13.41.76-20.07,1.02-9.53,2.24-19.04,4.82-28.3.82-2.94,1.51-5.91,2.45-8.83.49-1.5.23-3.26.94-4.86,1.04-2.33,2.68-4.11,4.61-5.63,3.73-2.95,8.04-4.84,12.47-6.46,7.61-2.78,15.51-4.42,23.43-6,.52-.1,1.02-.3,1.53-.46Z"/>
            <path class="cls-10" d="m387.78,142.7c-1.68-.06-22.31-30.79-23.23-32.2-1.99-3.04-2.27-6.48-2.41-9.91-.15-3.81-.35-7.6-.76-11.39-.19-1.79.02-3.42,1.31-5,3.83-4.68,7.44-9.52,11.17-14.29,1.5-1.92,2.61-4.01,3.01-6.43.13-.81.55-1.4,1.07-2.01,2.65-3.15,3.55-6.94,4.08-11.29-1.96,1.96-2.72,4.37-4.77,6.03-.45-5.53-1.18-10.81-2.18-16.04-1.34-7.61-6.53-15.32-16.18-19.03-3.6-1.38-13.34-3.02-22.86.94-2.03.85-3.63,5.76-7.07,11.05-2.61,4-5.21,9.63-6.23,14.86-1.64,8.44-3.53,17.73-4.21,20.89-.35,1.64-1.48-25.11,8.41-40.97-.28.14-.72.23-.93.59-2.72,4.65-4.06,9.99-4.92,12.9-.94,3.2-2.47,6.73-2.93,10.73-.51,4.51-1.92,7.53-1.91,7.24.64-11.11,7.38-28.63,7.03-28.22-3.99,4.63-7.92,30.2-7.82,30.89.57,3.85,1.41,7.45,3.74,10.36,2.91,3.65,5.61,7.48,8.68,10.99,1.73,1.98,1.84,4.07,1.45,6.31-.18,1.01-.26,2-.26,3.01.03,3.39-.24,6.75-.7,10.11-.13.97.11,1.93-.05,2.96-.69,4.41-3.21,6.9-7.53,7.69-.48.11-.97.22-1.45.34-3.51-2.77-6.91-5.65-9.79-9.1-4.39-5.25-7.43-11.14-8.89-17.85-.39-1.79-.82-3.57-.73-5.43-.04-1.41.18-2.82-.17-4.22.03-.29.06-.58.08-.86.01-.44.03-.88.05-1.32.45-6.88,1.18-13.74,2.05-20.58.6-4.69.78-9.45,1.71-14.07.79-2.88,2.08-4.04,4.04-9,1.29-3.26,2.29-6.45,3.86-9.65,1.9-3.89,3.81-8,9.8-12.17,7.42-3.53,20.7-11.22,24.24-9.2,1.12.64,1.06,1.11,1.82.37,3.62-3.54,27.06,6.55,31.21,13.11,3.25,3.93,4.25,4.8,5.66,9.67,1.07,3.71,2.51,4.79,3.24,8.58.03.17,1.63,7.17,2.79,10.35,1.99,5.47,1.31,9.98,1.84,15.76,0,1.87,0,3.74.01,5.61-.54,8.7-3.46,27.23-5.34,38.02-.43,8.81,2.05,36.02.97,40.86Z"/>
            <path class="cls-25" d="m338.5,48.08c-4.29-.1-8.39-1.53-12.65-.83-.61.1-1.17.05-1.27-.6-.1-.62.55-.7.99-.78,2.38-.47,4.78-.31,7.12.16,2,.4,4.16.44,5.81,2.05Z"/>
            <path class="cls-25" d="m355.4,47.99c.13-.57.58-.71.94-.84,3.59-1.32,7.31-1.8,11.11-1.37.55.06,1.58-.02,1.45.9-.12.85-.95.62-1.63.53-3.97-.52-7.84.55-11.87.78Z"/>
            <path class="cls-14" d="m287,196.78c.61.51.36,1.21.37,1.84.03,2.68-.01,5.35.02,8.03.04,3.12,1.84,5.38,3.82,7.54-1.53.36-3.07.72-2.7,2.87-2.67-.05-5.34-.09-8-.14-3.07-1.58-5.22-3.94-6.13-7.32-1.72-6.39,2.96-12.63,9.21-12.77,1.14-.03,2.27-.03,3.41-.05Z"/>
            <path class="cls-14" d="m405.58,217.05c.33-2.06-1.17-2.5-2.64-2.95,3.45-2.57,3.95-6.2,3.76-10.15-.12-2.49-.04-5-.05-7.49.08,0,.15-.01.22-.06.9.35,1.83.37,2.79.41,4.87.2,9.07,6.5,8.36,11.31-.62,4.2-2.76,6.82-6.16,8.82-2.1.04-4.19.08-6.29.12Z"/>
            <path class="cls-4" d="m325.27,52.04s1.66,3.47,6.99,3.42,6.8-3.42,6.8-3.42c0,0-2.75,2.56-6.89,2.54-4.15-.02-6.89-2.54-6.89-2.54Z"/>
            <path class="cls-4" d="m356.13,52.04s1.66,3.47,6.99,3.42,6.8-3.42,6.8-3.42c0,0-2.75,2.56-6.89,2.54-4.15-.02-6.89-2.54-6.89-2.54Z"/>
            <g class="cls-3">
              <path class="cls-6" d="m339.63,77.95c5.23,1.4,10.41,1.41,15.64.04-4.67,2.73-10.99,2.72-15.64-.04h0Z"/>
            </g>
            <g class="cls-3">
              <path class="cls-6" d="m344.1,68.89c1.87,1.77,4.93,1.77,6.8,0-.29,3.48-6.51,3.48-6.8,0h0Z"/>
            </g>
            <path class="cls-5" d="m327.86,83.41c3.3,2.82,6.24,5,8.52,6.58,4.92,3.42,6.57,3.94,8.19,4.1,3.01.28,5.53-.77,6.96-1.37,2.23-.93,3.72-2.09,5.94-3.82,1.95-1.52,3.45-2.93,4.46-3.94-.24.61-.53,1.52-.63,2.64-.11,1.24.07,1.93.27,3.33.27,1.83.34,3.83.49,7.84.02.6.03,1.05.08,1.82.13,2.16.25,2.3.16,2.57-.52,1.48-5.62,1.3-10.35.42-3.7-.69-8.1-1.56-12.9-4.71-3.33-2.18-5.1-3.35-6.35-5.74-1.06-2.02-1.41-4.28-3.64-7.94-.47-.77-.9-1.39-1.18-1.79Z"/>
          </g>
          <polygon class="cls-8" points="423.01 27.25 272.22 27.25 294.93 201.23 399.78 201.23 423.01 27.25"/>
          <g>
            <path class="cls-15" d="m406.91,144.62c0,16.33,0,32.66.01,48.99,0,.32,0,.64,0,.96,0,.28,0,.56,0,.84-.06.09-.1.19-.12.29.01,2.5-.07,5,.05,7.49.19,3.94-.31,7.58-3.76,10.15-.41.23-1.26-.28-1.2.73-2.8.82-5.67.71-8.54.71-31.42,0-62.84-.01-94.26,0-2.22,0-4.42,0-6.55-.71-.27-.45-.73-.54-1.18-.65-1.98-2.16-3.78-4.42-3.82-7.54-.04-2.68,0-5.35-.02-8.03,0-.62.25-1.33-.37-1.84.49-.55.39-1.22.39-1.86,0-16.27,0-32.53-.03-48.8,0-5.92,3.95-9.95,9.84-9.95,20.75,0,41.5,0,62.25-.01.38,0,.57,0,1.16-.02,1.04.02,23.14-.16,33.41-.05,1.82.02,3.45-.06,5.48.06.42.02,1.24.09,1.93.29.39.11.93.31,2.04,1.36,1,.95,1.42,1.71,1.43,1.74,1.14,1.42,1.51,3.21,1.8,5.05.02.22.04.57.06.79Z"/>
            <path class="cls-22" d="m406.76,145.17c0,16.33,0,32.66.01,48.99,0,.32,0,.64,0,.96,0,.28,0,.56,0,.84-.06.09-.1.19-.12.29.01,2.5-.07,5,.05,7.49.19,3.94-.31,7.58-3.76,10.15-.41.23-1.26-.28-1.2.73-2.8.82-5.67.71-8.54.71-31.42,0-62.84-.01-94.26,0-2.22,0-4.42,0-6.55-.71-.9-.06-3.11-2.06-2.94-2.54-6.52-7.92-.33-31.85,57.59-35.57,38.86-.87,33.22-44.96,56.21-38.55,2.33,1.7,3.11,4.03,3.49,6.65,0,.18.01.36.02.54Z"/>
          </g>
          <path class="cls-16" d="m207.42,176.22s-2.58.79-3.57,3.5c-1.58,4.32,1.15,6.27,1.15,6.27,2.6,1.42,4.98,3.13,4.03,5.5-.76,1.88-1.39,1.54-3.96,3.87,1.52-.04,2.31-.14,3.22-.21,1.4-.76,2.61-3.44,2.61-3.44,0,0,.66-4.19-1.59-5.65-.3-.19-.62-.34-.97-.43-.9-.24-3.01-.97-3.15-2.61-.09-.98-.37-2.63-.02-3.89.25-.88.4-.76,2.25-2.9Z"/>
          <path class="cls-16" d="m202.16,195.42c1.49-2.35.32-2.98-1.93-4.45-.3-.19-.62-.34-.97-.43-.9-.24-3.05-.51-3.19-2.16-.09-.98-.31-2.25.04-3.5.25-.88.53-1.93,1.3-4.63,0,0-1.64,1.68-2.63,4.39-1.58,4.32,1.15,6.27,1.15,6.27,2.6,1.42,4.35,1.88,3.78,4.37"/>
        </g>
        <g>
          <path class="cls-7" d="m5.12,39.48h.89l-3.93,10.43h-.89l3.93-10.43Z"/>
          <path class="cls-7" d="m12.32,39.48h.89l-3.93,10.43h-.89l3.93-10.43Z"/>
          <path class="cls-7" d="m15.35,40.13h1.02v3.29h3.26v-3.29h1.02v7.87h-1.02v-3.69h-3.26v3.69h-1.02v-7.87Z"/>
          <path class="cls-7" d="m22.42,45.07c0-1.89,1.42-3.05,2.97-3.05,1.68,0,2.66,1.09,2.66,2.73,0,.23-.02.44-.05.6h-4.93v-.77h4.34l-.25.28c0-1.38-.68-2.06-1.75-2.06s-2.01.82-2.01,2.27.98,2.28,2.28,2.28c.7,0,1.25-.22,1.77-.55l.36.65c-.58.38-1.32.7-2.25.7-1.75,0-3.14-1.13-3.14-3.07Z"/>
          <path class="cls-7" d="m31.75,46.04v-5.78h-2.06v-.8h3.06v6.66c0,.84.46,1.2,1.15,1.2.33,0,.7-.08,1.09-.26l.25.74c-.54.23-.92.35-1.56.35-1.25,0-1.93-.72-1.93-2.1Z"/>
          <path class="cls-7" d="m38.95,46.04v-5.78h-2.06v-.8h3.06v6.66c0,.84.46,1.2,1.15,1.2.33,0,.7-.08,1.09-.26l.25.74c-.54.23-.92.35-1.56.35-1.25,0-1.93-.72-1.93-2.1Z"/>
          <path class="cls-7" d="m43.92,45.09c0-1.96,1.34-3.07,2.88-3.07s2.88,1.12,2.88,3.07-1.34,3.05-2.88,3.05-2.88-1.12-2.88-3.05Zm4.74,0c0-1.34-.74-2.24-1.86-2.24s-1.86.9-1.86,2.24.74,2.22,1.86,2.22,1.86-.89,1.86-2.22Z"/>
          <path class="cls-7" d="m52.75,49.92c1.02-.46,1.52-1.1,1.51-2.1l-.22-1.1.67.95c-.19.22-.43.28-.67.28-.52,0-.94-.3-.94-.9s.44-.91.96-.91c.71,0,1.08.59,1.08,1.54,0,1.4-.79,2.39-2.11,2.88l-.29-.62Z"/>
          <path class="cls-7" d="m65.94,47.14h1.96v-6.17h-1.96v-.85h4.92v.85h-1.96v6.17h1.96v.85h-4.92v-.85Z"/>
          <path class="cls-7" d="m74.6,43.23c.8-.47,1.26-1.16,1.26-2.07l-.24-.94.66.8c-.2.22-.48.38-.74.38-.5,0-.85-.36-.85-.86,0-.55.37-.94.89-.94.64,0,1.08.54,1.08,1.46,0,1.2-.64,2.18-1.71,2.73l-.34-.58Z"/>
          <path class="cls-7" d="m79.89,42.16h.79l.08.77h.02c.3-.54.66-.91,1.33-.91.58,0,.94.34,1.1,1.01.33-.62.7-1.01,1.37-1.01.82,0,1.29.64,1.29,1.8v4.17h-.98v-4.1c0-.67-.19-1.02-.62-1.02-.41,0-.62.3-.94.9v4.22h-.91v-4.1c0-.67-.17-1.02-.6-1.02-.41,0-.67.3-.96.9v4.22h-.98v-5.83Z"/>
          <path class="cls-7" d="m94.64,40.13h1.94c2.36,0,3.65,1.4,3.65,3.9s-1.28,3.97-3.6,3.97h-1.99v-7.87Zm1.87,7.04c1.79,0,2.67-1.15,2.67-3.14s-.89-3.07-2.67-3.07h-.86v6.21h.86Z"/>
          <path class="cls-7" d="m104.58,42.97h-2.7v-.8h3.69v5.83h-1v-5.03Zm-.4-2.79c0-.46.34-.77.79-.77s.79.31.79.77-.33.77-.79.77-.79-.3-.79-.77Z"/>
          <path class="cls-7" d="m110.47,45.73v-2.76h-1.66v-.74l1.69-.06.13-1.87h.83v1.87h2.85v.8h-2.85v2.77c0,1.04.35,1.58,1.48,1.58.54,0,.97-.11,1.39-.26l.22.73c-.53.19-1.09.35-1.82.35-1.7,0-2.25-.97-2.25-2.41Z"/>
          <path class="cls-7" d="m117.67,45.73v-2.76h-1.66v-.74l1.69-.06.13-1.87h.83v1.87h2.85v.8h-2.85v2.77c0,1.04.35,1.58,1.48,1.58.54,0,.97-.11,1.39-.26l.22.73c-.53.19-1.09.35-1.82.35-1.7,0-2.25-.97-2.25-2.41Z"/>
          <path class="cls-7" d="m123.21,45.07c0-1.89,1.42-3.05,2.97-3.05,1.68,0,2.66,1.09,2.66,2.73,0,.23-.02.44-.05.6h-4.93v-.77h4.34l-.25.28c0-1.38-.68-2.06-1.75-2.06s-2.01.82-2.01,2.27.98,2.28,2.28,2.28c.7,0,1.25-.22,1.77-.55l.36.65c-.58.38-1.32.7-2.25.7-1.75,0-3.14-1.13-3.14-3.07Z"/>
          <path class="cls-7" d="m132.31,47.2c0-.58.41-.92.89-.92s.89.35.89.92-.41.94-.89.94-.89-.36-.89-.94Zm.42-6.12l-.02-1.13h.98l-.02,1.13-.13,4.11h-.67l-.13-4.11Z"/>
          <path class="cls-24" d="m.96,73.89c0-1.96,1.49-3.07,3.25-3.07.95,0,1.64.38,2.12.85l-.49.64c-.48-.41-.98-.66-1.59-.66-1.34,0-2.27.9-2.27,2.24s.91,2.22,2.24,2.22c.72,0,1.32-.32,1.8-.73l.44.65c-.65.58-1.45.91-2.32.91-1.82,0-3.19-1.12-3.19-3.05Z"/>
          <path class="cls-24" d="m7.92,73.89c0-1.96,1.34-3.07,2.88-3.07s2.88,1.12,2.88,3.07-1.34,3.05-2.88,3.05-2.88-1.12-2.88-3.05Zm4.74,0c0-1.34-.74-2.24-1.86-2.24s-1.86.9-1.86,2.24.74,2.22,1.86,2.22,1.86-.89,1.86-2.22Z"/>
          <path class="cls-24" d="m15.51,70.96h.82l.08.98h.05c.61-.64,1.28-1.13,2.2-1.13,1.38,0,2.01.82,2.01,2.35v3.62h-1v-3.49c0-1.1-.38-1.62-1.33-1.62-.7,0-1.16.35-1.83,1.04v4.07h-1v-5.83Z"/>
          <path class="cls-24" d="m22.45,76.03l.46-.66c.67.48,1.46.79,2.53.79.98,0,1.46-.41,1.46-.9,0-.44-.23-.76-1.81-1.08-1.52-.31-2.28-.83-2.28-1.7,0-.94.83-1.66,2.42-1.66.89,0,1.78.35,2.35.74l-.48.64c-.54-.37-1.21-.61-1.96-.61-.98,0-1.34.4-1.34.84,0,.5.5.72,1.7.97,1.93.42,2.4.9,2.4,1.8,0,.95-.92,1.74-2.59,1.74-1.14,0-2.16-.42-2.87-.91Z"/>
          <path class="cls-24" d="m31.27,74.53v-2.76h-1.66v-.74l1.69-.06.13-1.87h.83v1.87h2.85v.8h-2.85v2.77c0,1.04.35,1.58,1.48,1.58.54,0,.97-.11,1.39-.26l.22.73c-.53.19-1.09.35-1.82.35-1.7,0-2.25-.97-2.25-2.41Z"/>
          <path class="cls-23" d="m44.16,73.89c0-1.96,1.49-3.07,3.25-3.07.95,0,1.64.38,2.12.85l-.49.64c-.48-.41-.98-.66-1.59-.66-1.34,0-2.27.9-2.27,2.24s.91,2.22,2.24,2.22c.72,0,1.32-.32,1.8-.73l.44.65c-.65.58-1.45.91-2.32.91-1.82,0-3.19-1.12-3.19-3.05Z"/>
          <path class="cls-23" d="m51.12,73.89c0-1.96,1.34-3.07,2.88-3.07s2.88,1.12,2.88,3.07-1.34,3.05-2.88,3.05-2.88-1.12-2.88-3.05Zm4.74,0c0-1.34-.74-2.24-1.86-2.24s-1.86.9-1.86,2.24.74,2.22,1.86,2.22,1.86-.89,1.86-2.22Z"/>
          <path class="cls-23" d="m58.83,71.02l1.69-.06h3.39v.8h-5.08v-.74Zm1.67-.55c0-1.42.74-2.36,2.35-2.36.58,0,1.13.11,1.68.34l-.23.74c-.48-.2-.85-.28-1.36-.28-1.04,0-1.46.59-1.46,1.52v6.36h-.98v-6.32Z"/>
          <path class="cls-23" d="m66.03,71.02l1.69-.06h3.39v.8h-5.08v-.74Zm1.67-.55c0-1.42.74-2.36,2.35-2.36.58,0,1.13.11,1.68.34l-.23.74c-.48-.2-.85-.28-1.36-.28-1.04,0-1.46.59-1.46,1.52v6.36h-.98v-6.32Z"/>
          <path class="cls-23" d="m72.81,73.87c0-1.89,1.42-3.05,2.97-3.05,1.68,0,2.66,1.09,2.66,2.73,0,.23-.02.44-.05.6h-4.93v-.77h4.34l-.25.28c0-1.38-.68-2.06-1.75-2.06s-2.01.82-2.01,2.27.98,2.28,2.28,2.28c.7,0,1.25-.22,1.77-.55l.36.65c-.58.38-1.32.7-2.25.7-1.75,0-3.14-1.13-3.14-3.07Z"/>
          <path class="cls-23" d="m80.01,73.87c0-1.89,1.42-3.05,2.97-3.05,1.68,0,2.66,1.09,2.66,2.73,0,.23-.02.44-.05.6h-4.93v-.77h4.34l-.25.28c0-1.38-.68-2.06-1.75-2.06s-2.01.82-2.01,2.27.98,2.28,2.28,2.28c.7,0,1.25-.22,1.77-.55l.36.65c-.58.38-1.32.7-2.25.7-1.75,0-3.14-1.13-3.14-3.07Z"/>
          <path class="cls-2" d="m94.62,71.18h5.16v.74h-5.16v-.74Zm0,2.57h5.16v.74h-5.16v-.74Z"/>
          <path class="cls-24" d="m109.11,70.96h.82l.08.98h.05c.61-.64,1.28-1.13,2.2-1.13,1.38,0,2.01.82,2.01,2.35v3.62h-1v-3.49c0-1.1-.38-1.62-1.33-1.62-.7,0-1.16.35-1.84,1.04v4.07h-1v-5.83Z"/>
          <path class="cls-24" d="m116.01,73.87c0-1.89,1.42-3.05,2.97-3.05,1.68,0,2.66,1.09,2.66,2.73,0,.23-.02.44-.05.6h-4.93v-.77h4.34l-.25.28c0-1.38-.68-2.06-1.75-2.06s-2.01.82-2.01,2.27.98,2.28,2.28,2.28c.7,0,1.25-.22,1.77-.55l.36.65c-.58.38-1.32.7-2.25.7-1.75,0-3.14-1.13-3.14-3.07Z"/>
          <path class="cls-24" d="m122.49,70.96h.98l.7,3.38c.11.55.19,1.05.26,1.61h.05c.07-.55.2-1.07.34-1.61l.72-3.02h.98l.7,3.02c.13.55.29,1.05.36,1.61h.05c.1-.55.16-1.05.26-1.61l.7-3.38h.91l-1.25,5.83h-1.27l-.67-2.78c-.1-.41-.19-.98-.29-1.73h-.05c-.1.74-.19,1.32-.29,1.73l-.65,2.78h-1.27l-1.27-5.83Z"/>
          <path class="cls-19" d="m137.58,72.86c0-2.53,1.48-4.08,3.53-4.08.95,0,1.69.46,2.16.96l-.58.64c-.41-.43-.92-.71-1.58-.71-1.5,0-2.48,1.21-2.48,3.17s.98,3.21,2.48,3.21c.72,0,1.27-.31,1.76-.86l.58.61c-.61.72-1.39,1.14-2.43,1.14-1.94,0-3.43-1.51-3.43-4.08Z"/>
          <path class="cls-19" d="m144.72,73.89c0-1.96,1.34-3.07,2.88-3.07s2.88,1.12,2.88,3.07-1.34,3.05-2.88,3.05-2.88-1.12-2.88-3.05Zm4.74,0c0-1.34-.74-2.24-1.86-2.24s-1.86.9-1.86,2.24.74,2.22,1.86,2.22,1.86-.89,1.86-2.22Z"/>
          <path class="cls-19" d="m152.43,71.02l1.69-.06h3.39v.8h-5.08v-.74Zm1.67-.55c0-1.42.74-2.36,2.35-2.36.58,0,1.13.11,1.68.34l-.23.74c-.48-.2-.85-.28-1.36-.28-1.04,0-1.46.59-1.46,1.52v6.36h-.98v-6.32Z"/>
          <path class="cls-19" d="m159.63,71.02l1.69-.06h3.39v.8h-5.08v-.74Zm1.67-.55c0-1.42.74-2.36,2.35-2.36.58,0,1.13.11,1.68.34l-.23.74c-.48-.2-.85-.28-1.36-.28-1.04,0-1.46.59-1.46,1.52v6.36h-.98v-6.32Z"/>
          <path class="cls-19" d="m166.41,73.87c0-1.89,1.42-3.05,2.97-3.05,1.68,0,2.66,1.09,2.66,2.73,0,.23-.02.44-.05.6h-4.93v-.77h4.34l-.25.28c0-1.38-.68-2.06-1.75-2.06s-2.01.82-2.01,2.27.98,2.28,2.28,2.28c.7,0,1.25-.22,1.77-.55l.36.65c-.58.38-1.32.7-2.25.7-1.75,0-3.14-1.13-3.14-3.07Z"/>
          <path class="cls-19" d="m173.61,73.87c0-1.89,1.42-3.05,2.97-3.05,1.68,0,2.66,1.09,2.66,2.73,0,.23-.02.44-.05.6h-4.93v-.77h4.34l-.25.28c0-1.38-.68-2.06-1.75-2.06s-2.01.82-2.01,2.27.98,2.28,2.28,2.28c.7,0,1.25-.22,1.77-.55l.36.65c-.58.38-1.32.7-2.25.7-1.75,0-3.14-1.13-3.14-3.07Z"/>
          <path class="cls-20" d="m182.49,73.46c0-2.31,1.02-4.15,2.69-5.45l.55.5c-1.61,1.36-2.35,2.93-2.35,4.94s.74,3.59,2.35,4.94l-.55.5c-1.67-1.29-2.69-3.13-2.69-5.44Z"/>
          <path class="cls-20" d="m188.66,78.4c1.61-1.36,2.35-2.93,2.35-4.94s-.74-3.59-2.35-4.94l.55-.5c1.67,1.3,2.69,3.13,2.69,5.45s-1.02,4.15-2.69,5.44l-.55-.5Z"/>
          <path class="cls-2" d="m196.75,78.72c1.02-.46,1.52-1.1,1.51-2.1l-.22-1.1.67.95c-.19.22-.43.28-.67.28-.52,0-.94-.3-.94-.9s.44-.91.96-.91c.71,0,1.08.59,1.08,1.54,0,1.4-.79,2.39-2.11,2.88l-.29-.62Zm.28-7.1c0-.6.43-1.02.97-1.02s.97.42.97,1.02-.43,1.02-.97,1.02-.97-.41-.97-1.02Z"/>
          <path class="cls-23" d="m.96,102.69c0-1.96,1.49-3.07,3.25-3.07.95,0,1.64.38,2.12.85l-.49.64c-.48-.41-.98-.66-1.59-.66-1.34,0-2.27.9-2.27,2.24s.91,2.22,2.24,2.22c.72,0,1.32-.32,1.8-.73l.44.65c-.65.58-1.45.91-2.32.91-1.82,0-3.19-1.12-3.19-3.05Z"/>
          <path class="cls-23" d="m7.92,102.69c0-1.96,1.34-3.07,2.88-3.07s2.88,1.12,2.88,3.07-1.34,3.05-2.88,3.05-2.88-1.12-2.88-3.05Zm4.74,0c0-1.34-.74-2.24-1.86-2.24s-1.86.9-1.86,2.24.74,2.22,1.86,2.22,1.86-.89,1.86-2.22Z"/>
          <path class="cls-23" d="m15.63,99.82l1.69-.06h3.39v.8h-5.08v-.74Zm1.67-.55c0-1.42.74-2.36,2.35-2.36.58,0,1.13.11,1.68.34l-.23.74c-.48-.2-.85-.28-1.36-.28-1.04,0-1.46.59-1.46,1.52v6.36h-.98v-6.32Z"/>
          <path class="cls-23" d="m22.83,99.82l1.69-.06h3.39v.8h-5.08v-.74Zm1.67-.55c0-1.42.74-2.36,2.35-2.36.58,0,1.13.11,1.68.34l-.23.74c-.48-.2-.85-.28-1.36-.28-1.04,0-1.46.59-1.46,1.52v6.36h-.98v-6.32Z"/>
          <path class="cls-23" d="m29.62,102.67c0-1.89,1.42-3.05,2.97-3.05,1.68,0,2.66,1.09,2.66,2.73,0,.23-.02.44-.05.6h-4.93v-.77h4.34l-.25.28c0-1.38-.68-2.06-1.75-2.06s-2.01.82-2.01,2.27.98,2.28,2.28,2.28c.7,0,1.25-.22,1.77-.55l.36.65c-.58.38-1.32.7-2.25.7-1.75,0-3.14-1.13-3.14-3.07Z"/>
          <path class="cls-23" d="m36.81,102.67c0-1.89,1.42-3.05,2.97-3.05,1.68,0,2.66,1.09,2.66,2.73,0,.23-.02.44-.05.6h-4.93v-.77h4.34l-.25.28c0-1.38-.68-2.06-1.75-2.06s-2.01.82-2.01,2.27.98,2.28,2.28,2.28c.7,0,1.25-.22,1.77-.55l.36.65c-.58.38-1.32.7-2.25.7-1.75,0-3.14-1.13-3.14-3.07Z"/>
          <path class="cls-2" d="m45.83,104.72c0-.6.43-1.02.97-1.02s.97.42.97,1.02-.43,1.02-.97,1.02-.97-.41-.97-1.02Z"/>
          <path class="cls-13" d="m51.21,102.67c0-1.89,1.42-3.05,2.97-3.05,1.68,0,2.66,1.09,2.66,2.73,0,.23-.02.44-.05.6h-4.93v-.77h4.34l-.25.28c0-1.38-.68-2.06-1.75-2.06s-2.01.82-2.01,2.27.98,2.28,2.28,2.28c.7,0,1.25-.22,1.77-.55l.36.65c-.58.38-1.32.7-2.25.7-1.75,0-3.14-1.13-3.14-3.07Z"/>
          <path class="cls-13" d="m58.29,99.76h.79l.08.77h.02c.3-.54.66-.91,1.33-.91.58,0,.94.34,1.1,1.01.34-.62.7-1.01,1.37-1.01.82,0,1.29.64,1.29,1.8v4.17h-.98v-4.1c0-.67-.19-1.02-.62-1.02-.41,0-.62.3-.94.9v4.22h-.91v-4.1c0-.67-.17-1.02-.6-1.02-.41,0-.67.3-.96.9v4.22h-.98v-5.83Z"/>
          <path class="cls-13" d="m65.91,99.76h.82l.08.74h.04c.54-.52,1.31-.89,2.01-.89,1.57,0,2.41,1.16,2.41,2.97,0,1.98-1.25,3.14-2.65,3.14-.54,0-1.21-.28-1.74-.75h-.02l.05,1.1v1.97h-1v-8.29Zm4.34,2.83c0-1.28-.48-2.13-1.64-2.13-.52,0-1.12.26-1.7.86v2.9c.54.49,1.15.67,1.55.67,1.03,0,1.8-.86,1.8-2.3Z"/>
          <path class="cls-13" d="m74.47,103.33v-2.76h-1.66v-.74l1.69-.06.13-1.87h.83v1.87h2.85v.8h-2.85v2.77c0,1.04.35,1.58,1.48,1.58.54,0,.97-.11,1.39-.26l.22.73c-.53.19-1.09.35-1.82.35-1.7,0-2.25-.97-2.25-2.41Z"/>
          <path class="cls-13" d="m80,107.98l.2-.79c.16.05.35.08.53.08.82,0,1.31-.52,1.59-1.24l.17-.43-2.71-5.84h1.01l1.42,3.21c.23.52.48,1.13.72,1.69h.05c.2-.55.43-1.16.62-1.69l1.26-3.21h.96l-2.58,6.31c-.43,1.15-1.14,2.03-2.47,2.03-.28,0-.56-.05-.77-.12Z"/>
          <path class="cls-20" d="m88.89,102.26c0-2.31,1.02-4.15,2.69-5.45l.55.5c-1.61,1.36-2.35,2.93-2.35,4.94s.74,3.59,2.35,4.94l-.55.5c-1.67-1.3-2.69-3.13-2.69-5.45Z"/>
          <path class="cls-20" d="m95.06,107.2c1.61-1.36,2.35-2.93,2.35-4.94s-.74-3.59-2.35-4.94l.55-.5c1.67,1.29,2.69,3.13,2.69,5.45s-1.02,4.15-2.69,5.45l-.55-.5Z"/>
          <path class="cls-2" d="m112.77,99.39c0-.65-.46-1.15-1.32-1.15-.61,0-1.13.26-1.56.68l-.59-.54c.54-.56,1.28-.97,2.21-.97,1.33,0,2.23.73,2.23,1.87,0,1.63-2.17,1.97-1.97,3.51h-.88c-.29-1.7,1.87-2.18,1.87-3.41Zm-2.23,5.41c0-.58.41-.92.89-.92s.89.35.89.92-.41.94-.89.94-.89-.36-.89-.94Z"/>
          <path class="cls-23" d="m.96,131.49c0-1.96,1.49-3.07,3.25-3.07.95,0,1.64.38,2.12.85l-.49.64c-.48-.41-.98-.66-1.59-.66-1.34,0-2.27.9-2.27,2.24s.91,2.22,2.24,2.22c.72,0,1.32-.32,1.8-.73l.44.65c-.65.58-1.45.91-2.32.91-1.82,0-3.19-1.12-3.19-3.05Z"/>
          <path class="cls-23" d="m7.92,131.49c0-1.96,1.34-3.07,2.88-3.07s2.88,1.12,2.88,3.07-1.34,3.05-2.88,3.05-2.88-1.12-2.88-3.05Zm4.74,0c0-1.34-.74-2.24-1.86-2.24s-1.86.9-1.86,2.24.74,2.22,1.86,2.22,1.86-.89,1.86-2.22Z"/>
          <path class="cls-23" d="m15.63,128.62l1.69-.06h3.39v.8h-5.08v-.74Zm1.67-.55c0-1.42.74-2.36,2.35-2.36.58,0,1.13.11,1.68.34l-.23.74c-.48-.2-.85-.28-1.36-.28-1.04,0-1.46.59-1.46,1.52v6.36h-.98v-6.32Z"/>
          <path class="cls-23" d="m22.83,128.62l1.69-.06h3.39v.8h-5.08v-.74Zm1.67-.55c0-1.42.74-2.36,2.35-2.36.58,0,1.13.11,1.68.34l-.23.74c-.48-.2-.85-.28-1.36-.28-1.04,0-1.46.59-1.46,1.52v6.36h-.98v-6.32Z"/>
          <path class="cls-23" d="m29.62,131.47c0-1.89,1.42-3.05,2.97-3.05,1.68,0,2.66,1.09,2.66,2.73,0,.23-.02.44-.05.6h-4.93v-.77h4.34l-.25.28c0-1.38-.68-2.06-1.75-2.06s-2.01.82-2.01,2.27.98,2.28,2.28,2.28c.7,0,1.25-.22,1.77-.55l.36.65c-.58.38-1.32.7-2.25.7-1.75,0-3.14-1.13-3.14-3.07Z"/>
          <path class="cls-23" d="m36.81,131.47c0-1.89,1.42-3.05,2.97-3.05,1.68,0,2.66,1.09,2.66,2.73,0,.23-.02.44-.05.6h-4.93v-.77h4.34l-.25.28c0-1.38-.68-2.06-1.75-2.06s-2.01.82-2.01,2.27.98,2.28,2.28,2.28c.7,0,1.25-.22,1.77-.55l.36.65c-.58.38-1.32.7-2.25.7-1.75,0-3.14-1.13-3.14-3.07Z"/>
          <path class="cls-2" d="m45.83,133.52c0-.6.43-1.02.97-1.02s.97.42.97,1.02-.43,1.02-.97,1.02-.97-.41-.97-1.02Z"/>
          <path class="cls-13" d="m52.14,128.56h.83l.1,1.38h.02c.61-.95,1.52-1.52,2.6-1.52.43,0,.79.06,1.15.24l-.23.85c-.41-.13-.62-.19-1.08-.19-.88,0-1.7.44-2.4,1.67v3.41h-1v-5.83Z"/>
          <path class="cls-13" d="m58.41,131.47c0-1.89,1.42-3.05,2.97-3.05,1.68,0,2.66,1.09,2.66,2.73,0,.23-.02.44-.05.6h-4.93v-.77h4.34l-.25.28c0-1.38-.68-2.06-1.75-2.06s-2.01.82-2.01,2.27.98,2.28,2.28,2.28c.7,0,1.25-.22,1.77-.55l.36.65c-.58.38-1.32.7-2.25.7-1.75,0-3.14-1.13-3.14-3.07Z"/>
          <path class="cls-13" d="m66.03,128.62l1.69-.06h3.39v.8h-5.08v-.74Zm1.67-.55c0-1.42.74-2.36,2.35-2.36.58,0,1.13.11,1.68.34l-.23.74c-.48-.2-.85-.28-1.36-.28-1.04,0-1.46.59-1.46,1.52v6.36h-.98v-6.32Z"/>
          <path class="cls-13" d="m75.78,129.37h-2.7v-.8h3.69v5.83h-1v-5.03Zm-.4-2.79c0-.46.34-.77.79-.77s.79.31.79.77-.33.77-.79.77-.79-.3-.79-.77Z"/>
          <path class="cls-13" d="m82.15,132.44v-5.78h-2.06v-.8h3.06v6.66c0,.84.46,1.2,1.15,1.2.33,0,.7-.08,1.09-.26l.25.74c-.54.23-.92.35-1.56.35-1.25,0-1.93-.72-1.93-2.1Z"/>
          <path class="cls-13" d="m89.35,132.44v-5.78h-2.06v-.8h3.06v6.66c0,.84.46,1.2,1.15,1.2.33,0,.7-.08,1.09-.26l.25.74c-.54.23-.92.35-1.56.35-1.25,0-1.93-.72-1.93-2.1Z"/>
          <path class="cls-20" d="m96.09,131.06c0-2.31,1.02-4.15,2.69-5.45l.55.5c-1.61,1.36-2.35,2.93-2.35,4.94s.74,3.59,2.35,4.94l-.55.5c-1.67-1.3-2.69-3.13-2.69-5.45Z"/>
          <path class="cls-20" d="m102.26,136c1.61-1.36,2.35-2.93,2.35-4.94s-.74-3.59-2.35-4.94l.55-.5c1.67,1.29,2.69,3.13,2.69,5.45s-1.02,4.15-2.69,5.45l-.55-.5Z"/>
          <path class="cls-2" d="m117.83,129.22c0-.6.43-1.02.97-1.02s.97.42.97,1.02-.43,1.02-.97,1.02-.97-.41-.97-1.02Zm0,4.29c0-.6.43-1.02.97-1.02s.97.42.97,1.02-.43,1.02-.97,1.02-.97-.41-.97-1.02Z"/>
          <path class="cls-23" d="m130.56,131.49c0-1.96,1.49-3.07,3.25-3.07.95,0,1.64.38,2.12.85l-.49.64c-.48-.41-.98-.66-1.59-.66-1.34,0-2.27.9-2.27,2.24s.91,2.22,2.24,2.22c.72,0,1.32-.32,1.8-.73l.44.65c-.65.58-1.45.91-2.32.91-1.82,0-3.19-1.12-3.19-3.05Z"/>
          <path class="cls-23" d="m137.52,131.49c0-1.96,1.34-3.07,2.88-3.07s2.88,1.12,2.88,3.07-1.34,3.05-2.88,3.05-2.88-1.12-2.88-3.05Zm4.74,0c0-1.34-.74-2.24-1.86-2.24s-1.86.9-1.86,2.24.74,2.22,1.86,2.22,1.86-.89,1.86-2.22Z"/>
          <path class="cls-23" d="m145.23,128.62l1.69-.06h3.39v.8h-5.08v-.74Zm1.67-.55c0-1.42.74-2.36,2.35-2.36.58,0,1.13.11,1.68.34l-.23.74c-.48-.2-.85-.28-1.36-.28-1.04,0-1.46.59-1.46,1.52v6.36h-.98v-6.32Z"/>
          <path class="cls-23" d="m152.43,128.62l1.69-.06h3.39v.8h-5.08v-.74Zm1.67-.55c0-1.42.74-2.36,2.35-2.36.58,0,1.13.11,1.68.34l-.23.74c-.48-.2-.85-.28-1.36-.28-1.04,0-1.46.59-1.46,1.52v6.36h-.98v-6.32Z"/>
          <path class="cls-23" d="m159.21,131.47c0-1.89,1.42-3.05,2.97-3.05,1.68,0,2.66,1.09,2.66,2.73,0,.23-.02.44-.05.6h-4.93v-.77h4.34l-.25.28c0-1.38-.68-2.06-1.75-2.06s-2.01.82-2.01,2.27.98,2.28,2.28,2.28c.7,0,1.25-.22,1.77-.55l.36.65c-.58.38-1.32.7-2.25.7-1.75,0-3.14-1.13-3.14-3.07Z"/>
          <path class="cls-23" d="m166.41,131.47c0-1.89,1.42-3.05,2.97-3.05,1.68,0,2.66,1.09,2.66,2.73,0,.23-.02.44-.05.6h-4.93v-.77h4.34l-.25.28c0-1.38-.68-2.06-1.75-2.06s-2.01.82-2.01,2.27.98,2.28,2.28,2.28c.7,0,1.25-.22,1.77-.55l.36.65c-.58.38-1.32.7-2.25.7-1.75,0-3.14-1.13-3.14-3.07Z"/>
          <path class="cls-2" d="m175.42,133.52c0-.6.43-1.02.97-1.02s.97.42.97,1.02-.43,1.02-.97,1.02-.97-.41-.97-1.02Z"/>
          <path class="cls-13" d="m180.72,131.49c0-1.89,1.26-3.07,2.64-3.07.7,0,1.24.28,1.75.74h.02l-.05-1.07v-2.24h1v8.54h-.82l-.08-.77h-.04c-.48.49-1.18.91-1.91.91-1.51,0-2.52-1.1-2.52-3.05Zm4.37,1.34v-2.9c-.53-.49-1.02-.67-1.52-.67-1.01,0-1.82.89-1.82,2.22s.65,2.22,1.71,2.22c.58,0,1.12-.29,1.63-.86Z"/>
          <path class="cls-13" d="m188.94,128.56h.83l.1,1.38h.02c.61-.95,1.52-1.52,2.6-1.52.43,0,.79.06,1.15.24l-.23.85c-.41-.13-.62-.19-1.08-.19-.88,0-1.7.44-2.4,1.67v3.41h-1v-5.83Z"/>
          <path class="cls-13" d="m198.18,129.37h-2.7v-.8h3.69v5.83h-1v-5.03Zm-.4-2.79c0-.46.34-.77.79-.77s.79.31.79.77-.33.77-.79.77-.79-.3-.79-.77Z"/>
          <path class="cls-13" d="m202.71,128.56h.82l.08.98h.05c.61-.64,1.28-1.13,2.2-1.13,1.38,0,2.01.82,2.01,2.35v3.62h-1v-3.49c0-1.1-.38-1.62-1.33-1.62-.7,0-1.16.35-1.83,1.04v4.07h-1v-5.83Z"/>
          <path class="cls-13" d="m210.06,125.85h1v5.77h.05l3.13-3.06h1.14l-4.32,4.25v1.58h-1v-8.54Zm2.24,5.44l.6-.65,2.78,3.74h-1.1l-2.28-3.09Z"/>
          <path class="cls-20" d="m218.49,131.06c0-2.31,1.02-4.15,2.69-5.45l.55.5c-1.61,1.36-2.35,2.93-2.35,4.94s.74,3.59,2.35,4.94l-.55.5c-1.67-1.3-2.69-3.13-2.69-5.45Z"/>
          <path class="cls-20" d="m224.66,136c1.61-1.36,2.35-2.93,2.35-4.94s-.74-3.59-2.35-4.94l.55-.5c1.67,1.29,2.69,3.13,2.69,5.45s-1.02,4.15-2.69,5.45l-.55-.5Z"/>
          <path class="cls-2" d="m232.75,136.32c1.02-.46,1.52-1.1,1.51-2.1l-.22-1.1.67.95c-.19.22-.43.28-.67.28-.52,0-.93-.3-.93-.9s.44-.91.96-.91c.71,0,1.08.59,1.08,1.54,0,1.4-.79,2.39-2.11,2.88l-.29-.62Zm.28-7.1c0-.6.43-1.02.97-1.02s.97.42.97,1.02-.43,1.02-.97,1.02-.97-.41-.97-1.02Z"/>
        </g>
      </g>
    </g>
  </g>
</svg>