<?xml version="1.0" encoding="UTF-8"?>
<svg xmlns="http://www.w3.org/2000/svg" xmlns:xlink="http://www.w3.org/1999/xlink" viewBox="0 0 1771.69 415.62">
  <defs>
    <style>
      .cls-1 {
        fill: #fab982;
      }

      .cls-2 {
        fill: #fff;
      }

      .cls-3, .cls-4 {
        opacity: .51;
      }

      .cls-5 {
        opacity: .14;
      }

      .cls-5, .cls-4, .cls-6 {
        fill: #885d3d;
      }

      .cls-7 {
        fill: #6a9955;
      }

      .cls-8 {
        fill: url(#linear-gradient);
        mix-blend-mode: screen;
      }

      .cls-9 {
        isolation: isolate;
      }

      .cls-10 {
        fill: #e2d1a1;
      }

      .cls-11 {
        fill: #f26b6b;
      }

      .cls-12 {
        fill: #a2785b;
      }

      .cls-13 {
        fill: #dcdcaa;
      }

      .cls-14 {
        fill: #e5b28c;
      }

      .cls-15 {
        fill: #474b4d;
      }

      .cls-16 {
        fill: #a0a0a0;
        opacity: .25;
      }

      .cls-17 {
        fill: #303435;
      }

      .cls-18 {
        fill: #47a8b8;
      }

      .cls-19 {
        fill: #4ec9b0;
      }

      .cls-20 {
        fill: #ffd70a;
      }

      .cls-21 {
        fill: #f23030;
      }

      .cls-22 {
        fill: #595959;
      }

      .cls-23 {
        fill: #4fc1ff;
      }

      .cls-24 {
        fill: #569cd6;
      }

      .cls-25 {
        fill: #101f73;
      }

      .cls-26 {
        fill: #664f44;
      }
    </style>
    <linearGradient id="linear-gradient" x1="1393.56" y1="364.54" x2="1391.61" y2="28.14" gradientUnits="userSpaceOnUse">
      <stop offset="0" stop-color="#fff87f"/>
      <stop offset=".06" stop-color="#f9f27c" stop-opacity=".98"/>
      <stop offset=".13" stop-color="#eae474" stop-opacity=".92"/>
      <stop offset=".21" stop-color="#d1cc68" stop-opacity=".82"/>
      <stop offset=".29" stop-color="#afaa57" stop-opacity=".69"/>
      <stop offset=".38" stop-color="#827e40" stop-opacity=".51"/>
      <stop offset=".47" stop-color="#4b4925" stop-opacity=".3"/>
      <stop offset=".56" stop-color="#0c0b06" stop-opacity=".05"/>
      <stop offset=".58" stop-color="#000" stop-opacity="0"/>
    </linearGradient>
  </defs>
  <g class="cls-9">
    <g id="Layer_2" data-name="Layer 2">
      <g id="Layer_1-2" data-name="Layer 1">
        <rect class="cls-25" width="1771.69" height="415.24"/>
        <path class="cls-12" d="m1067.87,396.04c4.78,0,9.55-.01,14.33-.02,7.67.08,371.82.08,377.86,0l11.61-.02c27.37.03,54.74.07,82.1.1,6.6,0,6.81.23,5.35,3.92-1.28,3.23-4.16,5.77-8.78,7.58-2.23.88-3.32,1.75-2.66,3.48.99,2.62-2.03,3.81-5.73,4.39-1.62.25-3.42.11-5.14.11-153.89-.02-307.79-.04-461.68-.05-13.43,0-26.85.06-40.28.07-9.56,0-19.13.02-28.69-.05-5.85-.05-8.4-1.77-7.72-5.19.3-1.48-.37-2.15-2.59-3.1-5.12-2.2-8.22-5.29-8.9-9.22-.29-1.72.73-1.92,2.94-1.92,4.99,0,9.98,0,14.98,0,21-.02,42-.04,63-.06Z"/>
        <path class="cls-15" d="m1291.54,396.25c-.64-3.66,1.97-4.26,4.58-4.87.77.19,1.55.35,2,1.1,3.12,2.51,6.72,3.5,10.68,3.49,26.87-.01,53.74,0,80.61,0,27.91,0,55.83,0,83.74-.01,3.91,0,7.45-1.23,10.62-3.5-.11-1.71,1.34-.85,2.03-1.24,2.49.78,5.03,1.51,4.48,5.02.04,3.68-2.73,3.91-5.25,3.98-6.09.15-12.18.07-18.27.07-55.73,0-111.47,0-167.2-.02-2,0-4.02.24-5.97-.72-1.46-.72-2.26-1.64-2.04-3.29Z"/>
        <path class="cls-18" d="m1492.3,359.34c0-.55,0-1.09,0-1.64.32.55.35,1.09,0,1.64Z"/>
        <path class="cls-18" d="m1492.28,274.54c-.01-.3-.02-.61-.03-.91.32.29.31.6.03.91Z"/>
        <path class="cls-18" d="m1492.47,361.17c-.11.08-.24.11-.38.1.02-.18.09-.35.2-.5.15.09.21.22.18.4Z"/>
        <path class="cls-17" d="m1483.76,392.46c-3.18,2.27-6.71,3.5-10.62,3.5-27.91.01-55.83.01-83.74.01-26.87,0-53.74,0-80.61,0-3.95,0-7.56-.98-10.68-3.49,3.62,1.18,7.36,1.2,11.12,1.2,53.34-.03,106.68-.03,160.02-.01,4.87,0,9.75.18,14.5-1.21Z"/>
        <g>
          <g>
            <polygon class="cls-1" points="1127.35 356.6 1127.35 356.6 1127.35 356.61 1127.35 356.6"/>
            <path class="cls-21" d="m1167.77,387.14c-.12-6.54-.03-13.08-.04-19.61,0-1.01,0-2.01-.08-3.03-.12-1.34-.02-2.7-.12-4.06-.07-1.02,0-2.06-.15-3.08-.11-.69-.07-1.42-.51-2.04-.64-.91-1.6-1.33-2.58-1.7-1.76-.67-3.61-.99-5.47-1.29-1.52-.24-3.06-.32-4.58-.54-1.33-.19-2.69-.21-4.03-.21-2,0-3.98-.24-5.99-.08-1.93.15-3.87.17-5.81.28-.9.05-1.81.11-2.7.25-1.38.23-2.78.36-4.16.65-1.65.35-3.3.72-4.83,1.49-.92.46-1.75,1.09-1.99,2.11-.22.94-.32,1.94-.26,2.93.03.43-.18.81-.13,1.24.03.26-.19.17-.33.18-.49.04-.98.04-1.47.1-2.02.23-3.91.81-5.67,1.85-2.15,1.27-3.8,3-4.95,5.21-1.41,2.7-1.84,5.56-1.27,8.57.58,3.09,2.11,5.64,4.47,7.64,2.54,2.15,5.53,3.21,8.88,3.21.37,0,.48.08.48.47-.02,1.78,0,3.57,0,5.35,0,1.63.02,3.26,0,4.89-.02,1.22.56,2.01,1.61,2.55,1.69.86,3.56,1.05,5.39,1.35,1.83.31,3.68.53,5.52.73,1.82.2,3.65.31,5.48.4,1.65.09,3.31.08,4.98-.06,1.59-.13,3.2-.02,4.8-.13,1.47-.1,2.95-.12,4.43-.23,1.83-.14,3.66-.35,5.46-.7,1.46-.29,2.91-.61,4.23-1.34.97-.53,1.51-1.3,1.48-2.45-.08-3.63-.02-7.27-.09-10.9Zm-43.3-4.82c0,.7-.33,1-1.05.86-.8-.16-1.6-.3-2.36-.6-2.66-1.04-4.64-2.8-5.79-5.44-.67-1.55-.82-3.15-.59-4.83.33-2.31,1.42-4.19,3.11-5.7,1.42-1.27,3.08-2.15,5.02-2.4.07,0,.14-.06.21-.08,1.1-.28,1.34-.08,1.34,1.03,0,2.2,0,4.41,0,6.61,0,2.36-.06,4.72.02,7.07.04,1.16.08,2.32.09,3.48Zm.4,15.23c-.03.18-.04.34-.04.5,0-.16.01-.32.04-.5,0-.14,0-.28,0-.42.1.14.1.28,0,.42Zm2.24.57c-.01.12-.09.23-.23.21-.16-.02-.26-.15-.31-.3-.23-.65-.38-1.32-.47-2-.31-2.27-.48-4.54-.61-6.83-.04-.67-.05-1.33-.09-2-.15-2.28-.1-4.55-.11-6.83,0-1.63.08-3.26-.02-4.89-.2-3.33-.13-6.67-.05-9.99.03-1.53-.16-3.1.3-4.61.07-.24.1-.56.4-.54.28.02.28.32.29.55.1,1.65.3,3.29.14,4.96-.13,1.37.02,2.76-.04,4.14-.17,4.29-.12,8.58-.09,12.87.02,2.5.2,4.99.44,7.48.15,1.52.19,3.04.38,4.56.08.68,0,1.37.19,2.05.11.4-.07.79-.11,1.19Zm24.53-38.76c-.06,0-.11,0-.17,0-2.6.04-5.21.24-7.81.1-2.3-.13-4.61-.17-6.91-.41-2.28-.24-4.54-.5-6.76-1.07-.71-.18-1.39-.43-2.05-.74-.28-.13-.55-.29-.59-.64-.04-.04-.08-.08-.11-.12-.43-.88-.15-1.49.95-1.91,1.43-.54,2.92-.85,4.44-1.09,1.87-.3,3.74-.45,5.62-.66.62-.07,1.25-.08,1.88-.11,2.96-.13,5.93-.22,8.89-.12,1.65.05,3.31.08,4.96.24,2.79.27,5.6.48,8.32,1.24.76.21,1.52.42,2.2.84.79.49.81,1.25.06,1.82-.22.17-.48.3-.71.46-.05.34-.33.38-.59.46-1.84.59-3.73.89-5.64,1.15-1.98.27-3.98.35-5.97.55Zm15.52,37.52c0,.51-.05,1.02-.11,1.52-.06.51-.4.85-.81,1.12-1.15.76-2.47,1.09-3.79,1.38-1.56.34-3.16.45-4.74.67-.55.08-1.11.04-1.66.07-1.13.06-2.27.26-3.41.08.92-.36,1.89-.36,2.84-.47,2.54-.28,5.08-.55,7.5-1.42,1.07-.39,2.18-.87,2.59-2.14.08-.24.11-.48.11-.73,0-1.78,0-3.56,0-5.35-.01-1.68.08-3.36.24-5.03.03-.3.05-.74.33-.79.38-.06.37.41.46.67.23.67.28,1.39.33,2.08.2,2.77.14,5.55.13,8.32Z"/>
          </g>
          <path class="cls-11" d="m1125.27,380.37c0-1.63.08-3.26-.02-4.89-.2-3.33-.13-6.67-.05-9.99.03-1.53-.16-3.1.3-4.61.07-.24.1-.56.4-.54.28.02.28.32.29.55.1,1.65.3,3.29.14,4.96-.13,1.37.02,2.76-.04,4.14-.17,4.29-.12,8.58-.09,12.87.02,2.5.2,4.99.44,7.48.15,1.52.19,3.04.38,4.56.08.68,0,1.37.19,2.05.11.4-.07.79-.11,1.19-.01.12-.09.23-.23.21-.16-.02-.26-.15-.31-.3-.23-.65-.38-1.32-.47-2-.31-2.27-.48-4.54-.61-6.83-.04-.67-.05-1.33-.09-2-.15-2.28-.1-4.55-.11-6.83Z"/>
          <path class="cls-11" d="m1152.62,401.74c.92-.36,1.89-.36,2.84-.47,2.54-.28,5.08-.55,7.5-1.42,1.07-.39,2.18-.87,2.59-2.14.08-.24.11-.48.11-.73,0-1.78,0-3.56,0-5.35-.01-1.68.08-3.36.24-5.03.03-.3.05-.74.33-.79.38-.06.37.41.46.67.23.67.28,1.39.33,2.08.2,2.77.14,5.55.13,8.32,0,.51-.05,1.02-.11,1.52-.06.51-.4.85-.81,1.12-1.15.76-2.47,1.09-3.79,1.38-1.56.34-3.16.45-4.74.67-.55.08-1.11.04-1.66.07-1.13.06-2.27.26-3.41.08Z"/>
          <path class="cls-11" d="m1164.48,354.92c-.68-.42-1.44-.63-2.2-.84-2.72-.76-5.53-.97-8.32-1.24-1.64-.16-3.3-.19-4.96-.24-2.96-.1-5.93-.01-8.89.12-.62.03-1.26.04-1.88.11-1.87.21-3.75.36-5.62.66-1.52.24-3,.56-4.44,1.09-1.1.41-1.39,1.03-.95,1.91.04.04.08.08.11.12.04.36.31.51.59.64.66.31,1.34.56,2.05.74,2.22.57,4.49.82,6.76,1.07,2.3.25,4.6.29,6.91.41,2.6.14,5.2-.06,7.81-.1.06,0,.12,0,.17,0,1.99-.21,3.99-.28,5.97-.55,1.91-.26,3.81-.56,5.64-1.15.25-.08.54-.12.59-.46.24-.15.49-.29.71-.46.75-.57.73-1.33-.06-1.82Z"/>
        </g>
        <g>
          <path class="cls-14" d="m1426.99,219.21c8.97,2.77,18.31,3.86,27.42,6.01,10.04,2.37,20.46,3.54,30.15,6.86,10.74,3.68,18.74,11.06,20.69,23.19-8.16,3.14-16.91,2.11-25.3,3.61-3.1-.66-6.21-.07-9.31-.1-18.62-.2-37.25.78-55.86-.52-4.15-.2-8.21-.89-12.25-1.86-22.89-5.53-41.66-17.46-56.23-35.98,7.33-1.35,11.6-5.58,12.78-13.06.27-1.73-.14-3.37.08-5.02.78-5.7,1.23-11.41,1.19-17.16-.01-1.71.13-3.38.43-5.1.67-3.81.48-7.35-2.47-10.72-5.21-5.96-9.78-12.46-14.73-18.65-3.95-4.95-7.84-9.9-8.8-16.43-.18-1.18-1.07-1.93-1.65-2.87-4.75-7.78-6.26-16.24-5.42-25.24,2.13,5.18,3.62,10.58,6.19,15.88,1.7-25.08,9.83-56.71,26.55-62.8,7.31-5.67,57.53-6.67,58.58-5.17,3.22,4.57,19.52,32.53,21.08,40.65,1.7,8.88,1.26,19.07,2.03,28.46,3.48-2.83,4.77-6.92,8.09-10.24-.89,7.38-2.42,13.82-6.93,19.17-.87,1.04-1.59,2.04-1.81,3.41-.67,4.11-2.56,7.65-5.1,10.91-6.32,8.09-12.46,16.31-18.95,24.25-2.18,2.67-2.55,5.44-2.23,8.48.69,6.43,1.02,12.88,1.29,19.34.24,5.82.71,11.67,4.09,16.82,1.56,2.39,3.53,3.76,6.37,3.86Zm-50.58-109.83c-2.8-2.74-6.47-2.8-9.86-3.48-3.99-.8-8.05-1.06-12.1-.27-.74.14-1.84.27-1.67,1.33.17,1.11,1.12,1.19,2.15,1.02,7.23-1.2,14.19,1.24,21.48,1.4Zm28.69-.14c6.85-.39,13.41-2.2,20.16-1.33,1.15.15,2.56.54,2.76-.9.22-1.56-1.52-1.42-2.46-1.53-6.46-.73-12.76.08-18.86,2.33-.61.23-1.38.45-1.6,1.43Z"/>
          <path class="cls-21" d="m1507.8,396.01c-2.28,0-4.57.01-6.85.02,5.77-3.39,9.4-7.83,10.45-14.97,1.2-8.17-5.93-18.86-14.2-19.2-1.63-.07-3.21-.09-4.73-.69.03-.18-.03-.31-.18-.4,0-.48,0-.95,0-1.43.35-.54.32-1.09,0-1.63,0-27.73-.01-55.45-.02-83.18.27-.31.29-.62-.03-.91-.65-4.46-1.97-8.41-5.92-11.3-2.02-1.48-113.06.4-114.81-1.4,8.39-1.5,74.18-21.56,83.13-36.87,5.24,2.28,35.8,5.17,44.93,18.03,16.31,22.97,16.69,61.82,17.68,69.64,1.94,15.41,2.59,30.84,2.62,46.33.02,7.73-2.64,14.81-4.93,21.99-1.77,5.58-3.68,11.12-7.14,15.96Z"/>
          <path class="cls-21" d="m1343.85,220.99c.82-.19,1.64-.38,2.46-.57,14.57,18.52,33.34,30.45,56.23,35.98,4.04.98,8.1,1.66,12.24,1.86-.76.99-1.85.65-2.82.65-35.23.02-70.45.01-105.68.02-10,0-16.72,6.85-16.71,16.89.03,27.61.03,55.23.05,82.84,0,1.1.16,2.24-.66,3.16-1.93.02-3.86.03-5.78.08-10.61.24-18.56,10.84-15.64,21.69,1.55,5.74,5.2,9.74,10.41,12.43-2.82,0-5.64.01-8.46.02-4.52-7.03-7.49-14.68-9.31-22.82-.46-2.06-.93-4.18-1.81-6.09-1.4-3.03-1.09-6.16-1.12-9.3-.13-11.38.08-22.76,1.29-34.07,1.73-16.18,3.81-32.32,8.19-48.05,1.39-4.99,2.56-10.03,4.16-14.98.82-2.55.39-5.53,1.6-8.26,1.76-3.96,4.55-6.97,7.83-9.56,6.33-5.01,13.64-8.22,21.16-10.97,12.92-4.72,26.33-7.5,39.77-10.18.88-.18,1.74-.52,2.6-.78Z"/>
          <path class="cls-10" d="m1460.05,270.02c-2.84-.1-37.87-52.28-39.44-54.67-3.37-5.15-3.85-11-4.09-16.82-.26-6.46-.6-12.91-1.29-19.34-.33-3.05.04-5.81,2.23-8.48,6.5-7.94,12.64-16.17,18.95-24.25,2.55-3.26,4.44-6.8,5.1-10.91.22-1.37.94-2.38,1.81-3.41,4.51-5.35,6.03-11.79,6.93-19.17-3.32,3.32-4.61,7.41-8.09,10.24-.76-9.39-2-18.34-3.7-27.22-2.27-12.91-11.09-26.01-27.47-32.31-6.11-2.35-22.65-5.13-38.8,1.6-3.45,1.43-6.16,9.78-12.01,18.76-4.42,6.79-8.85,16.35-10.58,25.23-2.79,14.33-6,30.1-7.14,35.47-.59,2.78-2.52-42.63,14.28-69.55-.47.23-1.22.38-1.58,1.01-4.62,7.89-6.9,16.96-8.35,21.9-1.6,5.43-4.2,11.42-4.97,18.21-.87,7.65-3.27,12.79-3.24,12.29,1.09-18.86,12.53-48.61,11.93-47.91-6.78,7.86-13.45,51.26-13.28,52.45.97,6.53,2.4,12.64,6.35,17.59,4.95,6.19,9.52,12.7,14.73,18.65,2.94,3.37,3.13,6.91,2.47,10.72-.3,1.72-.45,3.4-.43,5.1.05,5.75-.41,11.46-1.19,17.16-.23,1.65.19,3.28-.08,5.02-1.18,7.48-5.46,11.71-12.78,13.06-.82.19-1.64.38-2.46.57-5.96-4.7-11.73-9.59-16.62-15.45-7.44-8.91-12.62-18.92-15.09-30.3-.66-3.05-1.39-6.07-1.23-9.22-.07-2.39.31-4.79-.3-7.16.05-.49.09-.98.14-1.47.03-.75.05-1.5.08-2.25.76-11.69,2.01-23.33,3.48-34.94,1.01-7.96,1.33-16.04,2.9-23.88,1.34-4.89,3.53-6.86,6.85-15.29,2.18-5.54,3.9-10.94,6.55-16.38,3.22-6.6,6.47-13.59,16.63-20.66,12.6-5.99,35.14-19.06,41.16-15.62,1.9,1.08,1.79,1.89,3.09.63,6.15-6,45.94,11.12,52.98,22.26,5.51,6.67,7.21,8.14,9.61,16.42,1.82,6.3,4.27,8.14,5.49,14.57.06.3,2.77,12.17,4.73,17.58,3.37,9.28,2.23,16.94,3.13,26.76,0,3.17.01,6.35.02,9.53-.93,14.76-5.87,46.23-9.06,64.54-.73,14.95,3.47,61.16,1.65,69.37Z"/>
          <path class="cls-26" d="m1376.4,109.38c-7.28-.16-14.24-2.6-21.48-1.4-1.03.17-1.98.09-2.15-1.02-.17-1.06.94-1.18,1.67-1.33,4.05-.79,8.11-.53,12.1.27,3.39.68,7.06.74,9.86,3.48Z"/>
          <path class="cls-26" d="m1405.09,109.24c.22-.98.98-1.2,1.6-1.43,6.1-2.25,12.4-3.05,18.86-2.33.94.11,2.68-.03,2.46,1.53-.2,1.44-1.61,1.05-2.76.9-6.74-.88-13.31.94-20.16,1.33Z"/>
          <path class="cls-14" d="m1288.96,361.83c1.04.87.61,2.06.63,3.12.05,4.54-.02,9.09.04,13.63.07,5.3,3.13,9.14,6.49,12.8-2.6.62-5.22,1.22-4.58,4.87-4.53-.08-9.06-.15-13.59-.23-5.21-2.69-8.86-6.69-10.41-12.43-2.93-10.84,5.03-21.44,15.64-21.69,1.93-.04,3.86-.05,5.78-.08Z"/>
          <path class="cls-14" d="m1490.27,396.23c.56-3.5-1.98-4.24-4.48-5.02,5.86-4.36,6.7-10.53,6.39-17.22-.2-4.23-.07-8.48-.09-12.72.14.01.26-.02.38-.1,1.53.6,3.1.62,4.73.69,8.26.34,15.4,11.03,14.2,19.2-1.05,7.13-4.68,11.58-10.45,14.97-3.56.07-7.12.14-10.68.21Z"/>
          <path class="cls-4" d="m1353.93,116.11s2.82,5.89,11.87,5.81c9.05-.08,11.54-5.81,11.54-5.81,0,0-4.66,4.35-11.7,4.32-7.04-.03-11.7-4.32-11.7-4.32Z"/>
          <path class="cls-4" d="m1406.34,116.11s2.82,5.89,11.87,5.81c9.05-.08,11.54-5.81,11.54-5.81,0,0-4.66,4.35-11.7,4.32-7.04-.03-11.7-4.32-11.7-4.32Z"/>
          <g class="cls-3">
            <path class="cls-6" d="m1378.32,160.09c8.87,2.38,17.67,2.39,26.56.06-7.92,4.64-18.66,4.61-26.56-.06h0Z"/>
          </g>
          <g class="cls-3">
            <path class="cls-6" d="m1385.91,144.71c3.17,3.01,8.37,3,11.54,0-.49,5.91-11.05,5.9-11.54,0h0Z"/>
          </g>
          <path class="cls-5" d="m1358.34,169.36c5.6,4.79,10.59,8.49,14.46,11.18,8.34,5.8,11.16,6.7,13.91,6.95,5.12.48,9.4-1.3,11.82-2.32,3.79-1.58,6.31-3.55,10.08-6.49,3.31-2.58,5.85-4.97,7.57-6.69-.4,1.03-.9,2.57-1.08,4.49-.19,2.1.12,3.28.46,5.65.45,3.11.58,6.51.83,13.31.04,1.02.06,1.78.13,3.09.21,3.66.43,3.9.26,4.36-.89,2.52-9.53,2.21-17.57.72-6.28-1.17-13.75-2.64-21.91-8-5.65-3.71-8.66-5.68-10.78-9.74-1.8-3.44-2.39-7.27-6.19-13.47-.8-1.31-1.52-2.35-2.01-3.04Z"/>
        </g>
        <polygon class="cls-8" points="1519.87 74.03 1263.88 74.03 1302.44 369.38 1480.42 369.38 1519.87 74.03"/>
        <g>
          <path class="cls-15" d="m1492.54,273.28c0,27.73.01,55.45.02,83.17,0,.54,0,1.09,0,1.64,0,.48,0,.95,0,1.43-.11.15-.17.32-.2.5.02,4.24-.11,8.49.09,12.72.31,6.69-.53,12.86-6.39,17.22-.7.38-2.14-.47-2.03,1.24-4.75,1.39-9.63,1.21-14.5,1.21-53.34-.01-106.68-.02-160.02.01-3.77,0-7.5-.02-11.12-1.2-.45-.76-1.23-.91-2-1.1-3.36-3.66-6.42-7.5-6.49-12.8-.06-4.54,0-9.09-.04-13.63-.01-1.06.42-2.25-.63-3.12.83-.93.66-2.06.66-3.16-.01-27.61-.02-55.23-.05-82.84-.01-10.04,6.71-16.89,16.71-16.89,35.23,0,70.45,0,105.68-.02.65,0,.97.01,1.97-.04,1.76.03,39.29-.28,56.72-.09,3.1.03,5.85-.1,9.31.1.71.04,2.1.15,3.28.49.67.19,1.58.52,3.46,2.31,1.7,1.61,2.4,2.91,2.44,2.95,1.93,2.41,2.56,5.44,3.05,8.58.03.37.07.97.1,1.33Z"/>
          <path class="cls-22" d="m1492.28,274.21c0,27.73.01,55.45.02,83.17,0,.54,0,1.09,0,1.64,0,.48,0,.95,0,1.43-.11.15-.17.32-.2.5.02,4.24-.11,8.49.09,12.72.31,6.69-.53,12.86-6.39,17.22-.7.38-2.14-.47-2.03,1.24-4.75,1.39-9.63,1.21-14.5,1.21-53.34-.01-106.68-.02-160.02.01-3.77,0-7.5-.02-11.12-1.2-1.53-.1-5.28-3.49-4.99-4.32-11.07-13.44-.55-54.07,97.77-60.39,65.97-1.48,56.39-76.33,95.43-65.44,3.96,2.89,5.28,6.84,5.92,11.3.01.3.02.61.03.91Z"/>
        </g>
        <path class="cls-16" d="m1153.87,326.92s-4.37,1.34-6.05,5.95c-2.68,7.33,1.95,10.65,1.95,10.65,4.42,2.41,8.46,5.31,6.83,9.33-1.29,3.19-2.36,2.62-6.72,6.57,2.58-.07,3.92-.23,5.47-.35,2.38-1.28,4.43-5.84,4.43-5.84,0,0,1.12-7.11-2.7-9.6-.5-.33-1.06-.58-1.64-.74-1.53-.4-5.11-1.64-5.35-4.43-.14-1.66-.63-4.47-.03-6.6.42-1.49.68-1.3,3.82-4.93Z"/>
        <path class="cls-16" d="m1144.93,359.52c2.54-3.98.54-5.07-3.28-7.55-.5-.33-1.06-.58-1.64-.74-1.53-.4-5.17-.87-5.41-3.66-.14-1.66-.53-3.82.07-5.95.42-1.49.9-3.28,2.2-7.86,0,0-2.79,2.85-4.47,7.46-2.68,7.33,1.95,10.65,1.95,10.65,4.42,2.41,7.39,3.19,6.42,7.42"/>
        <g>
          <path class="cls-7" d="m116.22,124.25h2.13l-9.45,25.06h-2.13l9.45-25.06Z"/>
          <path class="cls-7" d="m133.5,124.25h2.13l-9.45,25.06h-2.13l9.45-25.06Z"/>
          <path class="cls-7" d="m140.76,125.81h2.45v7.89h7.84v-7.89h2.45v18.9h-2.45v-8.87h-7.84v8.87h-2.45v-18.9Z"/>
          <path class="cls-7" d="m157.73,137.68c0-4.55,3.4-7.32,7.14-7.32,4.03,0,6.4,2.62,6.4,6.57,0,.55-.06,1.07-.12,1.44h-11.84v-1.84h10.43l-.6.66c0-3.31-1.64-4.96-4.21-4.96s-4.84,1.96-4.84,5.44,2.36,5.47,5.47,5.47c1.67,0,3-.52,4.26-1.33l.86,1.56c-1.38.92-3.17,1.67-5.42,1.67-4.21,0-7.55-2.71-7.55-7.38Z"/>
          <path class="cls-7" d="m180.14,140.01v-13.88h-4.96v-1.93h7.35v15.99c0,2.02,1.09,2.88,2.77,2.88.81,0,1.67-.2,2.62-.63l.6,1.79c-1.3.55-2.22.83-3.75.83-3,0-4.64-1.73-4.64-5.04Z"/>
          <path class="cls-7" d="m197.42,140.01v-13.88h-4.96v-1.93h7.35v15.99c0,2.02,1.09,2.88,2.77,2.88.81,0,1.67-.2,2.62-.63l.6,1.79c-1.3.55-2.22.83-3.75.83-3,0-4.64-1.73-4.64-5.04Z"/>
          <path class="cls-7" d="m209.35,137.74c0-4.7,3.23-7.38,6.91-7.38s6.91,2.68,6.91,7.38-3.23,7.32-6.91,7.32-6.91-2.68-6.91-7.32Zm11.38,0c0-3.23-1.79-5.39-4.47-5.39s-4.47,2.16-4.47,5.39,1.79,5.33,4.47,5.33,4.47-2.13,4.47-5.33Z"/>
          <path class="cls-7" d="m230.55,149.35c2.45-1.09,3.66-2.65,3.63-5.04l-.52-2.65,1.61,2.28c-.46.52-1.04.66-1.61.66-1.24,0-2.25-.72-2.25-2.16s1.07-2.19,2.3-2.19c1.7,0,2.59,1.41,2.59,3.69,0,3.37-1.9,5.73-5.07,6.91l-.69-1.5Z"/>
          <path class="cls-7" d="m262.21,142.66h4.7v-14.81h-4.7v-2.05h11.81v2.05h-4.7v14.81h4.7v2.05h-11.81v-2.05Z"/>
          <path class="cls-7" d="m283,133.27c1.93-1.12,3.02-2.79,3.02-4.98l-.58-2.25,1.58,1.93c-.49.52-1.15.92-1.79.92-1.21,0-2.05-.87-2.05-2.07,0-1.33.89-2.25,2.13-2.25,1.53,0,2.59,1.3,2.59,3.52,0,2.88-1.53,5.24-4.12,6.57l-.81-1.38Z"/>
          <path class="cls-7" d="m295.71,130.71h1.9l.2,1.84h.06c.72-1.3,1.58-2.19,3.2-2.19,1.38,0,2.25.81,2.65,2.42.81-1.5,1.67-2.42,3.28-2.42,1.96,0,3.11,1.53,3.11,4.32v10.03h-2.36v-9.85c0-1.61-.46-2.45-1.5-2.45-.98,0-1.5.72-2.25,2.16v10.14h-2.19v-9.85c0-1.61-.4-2.45-1.44-2.45-.98,0-1.61.72-2.3,2.16v10.14h-2.36v-14Z"/>
          <path class="cls-7" d="m331.11,125.81h4.67c5.68,0,8.76,3.37,8.76,9.36s-3.08,9.54-8.64,9.54h-4.78v-18.9Zm4.49,16.91c4.29,0,6.42-2.77,6.42-7.55s-2.13-7.38-6.42-7.38h-2.07v14.92h2.07Z"/>
          <path class="cls-7" d="m354.96,132.64h-6.48v-1.93h8.87v14h-2.39v-12.07Zm-.95-6.71c0-1.09.81-1.84,1.9-1.84s1.9.75,1.9,1.84-.81,1.84-1.9,1.84-1.9-.72-1.9-1.84Z"/>
          <path class="cls-7" d="m369.11,139.26v-6.63h-3.98v-1.79l4.06-.14.32-4.49h1.99v4.49h6.86v1.93h-6.86v6.66c0,2.51.84,3.8,3.54,3.8,1.3,0,2.33-.26,3.34-.63l.52,1.76c-1.27.46-2.62.83-4.38.83-4.09,0-5.42-2.33-5.42-5.79Z"/>
          <path class="cls-7" d="m386.39,139.26v-6.63h-3.98v-1.79l4.06-.14.32-4.49h1.99v4.49h6.86v1.93h-6.86v6.66c0,2.51.84,3.8,3.54,3.8,1.3,0,2.33-.26,3.34-.63l.52,1.76c-1.27.46-2.62.83-4.38.83-4.09,0-5.42-2.33-5.42-5.79Z"/>
          <path class="cls-7" d="m399.7,137.68c0-4.55,3.4-7.32,7.14-7.32,4.03,0,6.4,2.62,6.4,6.57,0,.55-.06,1.07-.12,1.44h-11.84v-1.84h10.43l-.6.66c0-3.31-1.64-4.96-4.21-4.96s-4.84,1.96-4.84,5.44,2.36,5.47,5.47,5.47c1.67,0,3-.52,4.26-1.33l.86,1.56c-1.38.92-3.17,1.67-5.42,1.67-4.21,0-7.55-2.71-7.55-7.38Z"/>
          <path class="cls-7" d="m421.53,142.81c0-1.38.98-2.22,2.13-2.22s2.13.84,2.13,2.22-.98,2.25-2.13,2.25-2.13-.86-2.13-2.25Zm1.01-14.69l-.06-2.71h2.36l-.06,2.71-.32,9.88h-1.61l-.32-9.88Z"/>
          <path class="cls-24" d="m106.22,206.87c0-4.7,3.57-7.38,7.81-7.38,2.28,0,3.95.92,5.1,2.05l-1.18,1.53c-1.15-.98-2.36-1.58-3.83-1.58-3.23,0-5.44,2.16-5.44,5.39s2.19,5.33,5.39,5.33c1.73,0,3.17-.78,4.32-1.76l1.07,1.56c-1.56,1.38-3.49,2.19-5.56,2.19-4.38,0-7.66-2.68-7.66-7.32Z"/>
          <path class="cls-24" d="m122.93,206.87c0-4.7,3.23-7.38,6.91-7.38s6.91,2.68,6.91,7.38-3.23,7.32-6.91,7.32-6.91-2.68-6.91-7.32Zm11.38,0c0-3.23-1.79-5.39-4.47-5.39s-4.47,2.16-4.47,5.39,1.79,5.33,4.47,5.33,4.47-2.13,4.47-5.33Z"/>
          <path class="cls-24" d="m141.16,199.84h1.96l.2,2.36h.12c1.47-1.53,3.08-2.71,5.27-2.71,3.31,0,4.84,1.96,4.84,5.65v8.7h-2.39v-8.38c0-2.65-.92-3.89-3.2-3.89-1.67,0-2.79.83-4.41,2.51v9.77h-2.39v-14Z"/>
          <path class="cls-24" d="m157.81,212l1.09-1.58c1.61,1.15,3.51,1.9,6.08,1.9,2.36,0,3.51-.98,3.51-2.16,0-1.07-.55-1.81-4.35-2.59-3.66-.75-5.47-1.99-5.47-4.09,0-2.25,1.99-3.98,5.82-3.98,2.13,0,4.26.83,5.65,1.79l-1.15,1.53c-1.3-.89-2.91-1.47-4.7-1.47-2.36,0-3.23.95-3.23,2.02,0,1.21,1.21,1.73,4.09,2.33,4.64,1.01,5.76,2.16,5.76,4.32,0,2.28-2.22,4.18-6.22,4.18-2.74,0-5.19-1.01-6.89-2.19Z"/>
          <path class="cls-24" d="m178.99,208.4v-6.62h-3.98v-1.79l4.06-.14.32-4.49h1.99v4.49h6.86v1.93h-6.86v6.65c0,2.51.84,3.8,3.54,3.8,1.3,0,2.33-.26,3.34-.63l.52,1.76c-1.27.46-2.62.84-4.38.84-4.09,0-5.42-2.33-5.42-5.79Z"/>
          <path class="cls-23" d="m209.92,206.87c0-4.7,3.57-7.38,7.81-7.38,2.28,0,3.95.92,5.1,2.05l-1.18,1.53c-1.15-.98-2.36-1.58-3.83-1.58-3.23,0-5.44,2.16-5.44,5.39s2.19,5.33,5.39,5.33c1.73,0,3.17-.78,4.32-1.76l1.07,1.56c-1.56,1.38-3.49,2.19-5.56,2.19-4.38,0-7.66-2.68-7.66-7.32Z"/>
          <path class="cls-23" d="m226.63,206.87c0-4.7,3.23-7.38,6.91-7.38s6.91,2.68,6.91,7.38-3.23,7.32-6.91,7.32-6.91-2.68-6.91-7.32Zm11.38,0c0-3.23-1.79-5.39-4.47-5.39s-4.47,2.16-4.47,5.39,1.79,5.33,4.47,5.33,4.47-2.13,4.47-5.33Z"/>
          <path class="cls-23" d="m245.15,199.99l4.06-.14h8.15v1.93h-12.21v-1.79Zm4-1.32c0-3.4,1.79-5.68,5.65-5.68,1.38,0,2.71.26,4.03.81l-.55,1.79c-1.15-.49-2.05-.66-3.26-.66-2.51,0-3.51,1.41-3.51,3.66v15.27h-2.36v-15.18Z"/>
          <path class="cls-23" d="m262.44,199.99l4.06-.14h8.15v1.93h-12.21v-1.79Zm4-1.32c0-3.4,1.79-5.68,5.65-5.68,1.38,0,2.71.26,4.03.81l-.55,1.79c-1.15-.49-2.05-.66-3.26-.66-2.51,0-3.51,1.41-3.51,3.66v15.27h-2.36v-15.18Z"/>
          <path class="cls-23" d="m278.71,206.81c0-4.55,3.4-7.32,7.14-7.32,4.03,0,6.4,2.62,6.4,6.57,0,.55-.06,1.07-.12,1.44h-11.84v-1.84h10.43l-.6.66c0-3.31-1.64-4.96-4.21-4.96s-4.84,1.96-4.84,5.45,2.36,5.47,5.47,5.47c1.67,0,3-.52,4.26-1.33l.86,1.56c-1.38.92-3.17,1.67-5.42,1.67-4.21,0-7.55-2.71-7.55-7.38Z"/>
          <path class="cls-23" d="m296,206.81c0-4.55,3.4-7.32,7.14-7.32,4.03,0,6.4,2.62,6.4,6.57,0,.55-.06,1.07-.12,1.44h-11.84v-1.84h10.43l-.6.66c0-3.31-1.64-4.96-4.21-4.96s-4.84,1.96-4.84,5.45,2.36,5.47,5.47,5.47c1.67,0,3-.52,4.26-1.33l.86,1.56c-1.38.92-3.17,1.67-5.42,1.67-4.21,0-7.55-2.71-7.55-7.38Z"/>
          <path class="cls-2" d="m331.05,200.36h12.39v1.79h-12.39v-1.79Zm0,6.17h12.39v1.79h-12.39v-1.79Z"/>
          <path class="cls-24" d="m365.85,199.84h1.96l.2,2.36h.12c1.47-1.53,3.08-2.71,5.27-2.71,3.31,0,4.84,1.96,4.84,5.65v8.7h-2.39v-8.38c0-2.65-.92-3.89-3.2-3.89-1.67,0-2.79.83-4.41,2.51v9.77h-2.39v-14Z"/>
          <path class="cls-24" d="m382.41,206.81c0-4.55,3.4-7.32,7.14-7.32,4.03,0,6.4,2.62,6.4,6.57,0,.55-.06,1.07-.12,1.44h-11.84v-1.84h10.43l-.6.66c0-3.31-1.64-4.96-4.21-4.96s-4.84,1.96-4.84,5.45,2.36,5.47,5.47,5.47c1.67,0,3-.52,4.26-1.33l.86,1.56c-1.38.92-3.17,1.67-5.42,1.67-4.21,0-7.55-2.71-7.55-7.38Z"/>
          <path class="cls-24" d="m397.97,199.84h2.36l1.67,8.12c.26,1.33.46,2.54.63,3.86h.12c.17-1.33.49-2.56.81-3.86l1.73-7.26h2.36l1.67,7.26c.32,1.33.69,2.54.86,3.86h.12c.23-1.33.37-2.54.63-3.86l1.67-8.12h2.19l-3,14h-3.05l-1.61-6.68c-.23-.98-.46-2.36-.69-4.15h-.12c-.23,1.79-.46,3.17-.69,4.15l-1.56,6.68h-3.05l-3.05-14Z"/>
          <path class="cls-19" d="m434.18,204.39c0-6.08,3.54-9.79,8.47-9.79,2.28,0,4.06,1.09,5.19,2.3l-1.38,1.53c-.98-1.04-2.22-1.7-3.8-1.7-3.6,0-5.96,2.91-5.96,7.61s2.36,7.72,5.96,7.72c1.73,0,3.05-.75,4.23-2.07l1.38,1.47c-1.47,1.73-3.34,2.74-5.85,2.74-4.67,0-8.24-3.63-8.24-9.79Z"/>
          <path class="cls-19" d="m451.32,206.87c0-4.7,3.23-7.38,6.91-7.38s6.91,2.68,6.91,7.38-3.23,7.32-6.91,7.32-6.91-2.68-6.91-7.32Zm11.38,0c0-3.23-1.79-5.39-4.47-5.39s-4.47,2.16-4.47,5.39,1.79,5.33,4.47,5.33,4.47-2.13,4.47-5.33Z"/>
          <path class="cls-19" d="m469.84,199.99l4.06-.14h8.15v1.93h-12.21v-1.79Zm4-1.32c0-3.4,1.79-5.68,5.65-5.68,1.38,0,2.71.26,4.03.81l-.55,1.79c-1.15-.49-2.05-.66-3.26-.66-2.51,0-3.51,1.41-3.51,3.66v15.27h-2.36v-15.18Z"/>
          <path class="cls-19" d="m487.12,199.99l4.06-.14h8.15v1.93h-12.21v-1.79Zm4-1.32c0-3.4,1.79-5.68,5.65-5.68,1.38,0,2.71.26,4.03.81l-.55,1.79c-1.15-.49-2.05-.66-3.26-.66-2.51,0-3.51,1.41-3.51,3.66v15.27h-2.36v-15.18Z"/>
          <path class="cls-19" d="m503.4,206.81c0-4.55,3.4-7.32,7.14-7.32,4.03,0,6.4,2.62,6.4,6.57,0,.55-.06,1.07-.12,1.44h-11.84v-1.84h10.43l-.6.66c0-3.31-1.64-4.96-4.21-4.96s-4.84,1.96-4.84,5.45,2.36,5.47,5.47,5.47c1.67,0,3-.52,4.26-1.33l.86,1.56c-1.38.92-3.17,1.67-5.42,1.67-4.21,0-7.55-2.71-7.55-7.38Z"/>
          <path class="cls-19" d="m520.68,206.81c0-4.55,3.4-7.32,7.14-7.32,4.03,0,6.4,2.62,6.4,6.57,0,.55-.06,1.07-.12,1.44h-11.84v-1.84h10.43l-.6.66c0-3.31-1.64-4.96-4.21-4.96s-4.84,1.96-4.84,5.45,2.36,5.47,5.47,5.47c1.67,0,3-.52,4.26-1.33l.86,1.56c-1.38.92-3.17,1.67-5.42,1.67-4.21,0-7.55-2.71-7.55-7.38Z"/>
          <path class="cls-20" d="m542,205.83c0-5.56,2.45-9.97,6.45-13.08l1.33,1.21c-3.86,3.25-5.65,7.03-5.65,11.87s1.79,8.61,5.65,11.87l-1.33,1.21c-4-3.11-6.45-7.52-6.45-13.08Z"/>
          <path class="cls-20" d="m556.81,217.7c3.86-3.25,5.65-7.03,5.65-11.87s-1.79-8.61-5.65-11.87l1.33-1.21c4,3.11,6.45,7.52,6.45,13.08s-2.45,9.97-6.45,13.08l-1.33-1.21Z"/>
          <path class="cls-2" d="m576.22,218.48c2.45-1.1,3.66-2.65,3.63-5.04l-.52-2.65,1.61,2.28c-.46.52-1.04.66-1.61.66-1.24,0-2.25-.72-2.25-2.16s1.07-2.19,2.3-2.19c1.7,0,2.59,1.41,2.59,3.69,0,3.37-1.9,5.73-5.07,6.91l-.69-1.5Zm.66-17.05c0-1.44,1.04-2.45,2.33-2.45s2.33,1.01,2.33,2.45-1.04,2.45-2.33,2.45-2.33-.98-2.33-2.45Z"/>
          <path class="cls-23" d="m106.22,276.01c0-4.7,3.57-7.38,7.81-7.38,2.28,0,3.95.92,5.1,2.04l-1.18,1.53c-1.15-.98-2.36-1.58-3.83-1.58-3.23,0-5.44,2.16-5.44,5.39s2.19,5.33,5.39,5.33c1.73,0,3.17-.78,4.32-1.76l1.07,1.56c-1.56,1.38-3.49,2.19-5.56,2.19-4.38,0-7.66-2.68-7.66-7.32Z"/>
          <path class="cls-23" d="m122.93,276.01c0-4.7,3.23-7.38,6.91-7.38s6.91,2.68,6.91,7.38-3.23,7.32-6.91,7.32-6.91-2.68-6.91-7.32Zm11.38,0c0-3.23-1.79-5.39-4.47-5.39s-4.47,2.16-4.47,5.39,1.79,5.33,4.47,5.33,4.47-2.13,4.47-5.33Z"/>
          <path class="cls-23" d="m141.45,269.12l4.06-.14h8.15v1.93h-12.21v-1.79Zm4-1.33c0-3.4,1.79-5.67,5.65-5.67,1.38,0,2.71.26,4.03.81l-.55,1.79c-1.15-.49-2.05-.66-3.26-.66-2.51,0-3.51,1.41-3.51,3.66v15.27h-2.36v-15.18Z"/>
          <path class="cls-23" d="m158.73,269.12l4.06-.14h8.15v1.93h-12.21v-1.79Zm4-1.33c0-3.4,1.79-5.67,5.65-5.67,1.38,0,2.71.26,4.03.81l-.55,1.79c-1.15-.49-2.05-.66-3.26-.66-2.51,0-3.51,1.41-3.51,3.66v15.27h-2.36v-15.18Z"/>
          <path class="cls-23" d="m175.01,275.95c0-4.55,3.4-7.32,7.14-7.32,4.03,0,6.4,2.62,6.4,6.57,0,.55-.06,1.07-.12,1.44h-11.84v-1.84h10.43l-.6.66c0-3.31-1.64-4.96-4.21-4.96s-4.84,1.96-4.84,5.44,2.36,5.47,5.47,5.47c1.67,0,3-.52,4.26-1.33l.86,1.56c-1.38.92-3.17,1.67-5.42,1.67-4.21,0-7.55-2.71-7.55-7.38Z"/>
          <path class="cls-23" d="m192.29,275.95c0-4.55,3.4-7.32,7.14-7.32,4.03,0,6.4,2.62,6.4,6.57,0,.55-.06,1.07-.12,1.44h-11.84v-1.84h10.43l-.6.66c0-3.31-1.64-4.96-4.21-4.96s-4.84,1.96-4.84,5.44,2.36,5.47,5.47,5.47c1.67,0,3-.52,4.26-1.33l.86,1.56c-1.38.92-3.17,1.67-5.42,1.67-4.21,0-7.55-2.71-7.55-7.38Z"/>
          <path class="cls-2" d="m213.93,280.88c0-1.44,1.04-2.45,2.33-2.45s2.33,1.01,2.33,2.45-1.04,2.45-2.33,2.45-2.33-.98-2.33-2.45Z"/>
          <path class="cls-13" d="m226.86,275.95c0-4.55,3.4-7.32,7.14-7.32,4.03,0,6.4,2.62,6.4,6.57,0,.55-.06,1.07-.12,1.44h-11.84v-1.84h10.43l-.6.66c0-3.31-1.64-4.96-4.21-4.96s-4.84,1.96-4.84,5.44,2.36,5.47,5.47,5.47c1.67,0,3-.52,4.26-1.33l.86,1.56c-1.38.92-3.17,1.67-5.42,1.67-4.21,0-7.55-2.71-7.55-7.38Z"/>
          <path class="cls-13" d="m243.86,268.98h1.9l.2,1.84h.06c.72-1.3,1.58-2.19,3.2-2.19,1.38,0,2.25.81,2.65,2.42.81-1.5,1.67-2.42,3.28-2.42,1.96,0,3.11,1.53,3.11,4.32v10.03h-2.36v-9.85c0-1.61-.46-2.45-1.5-2.45-.98,0-1.5.72-2.25,2.16v10.14h-2.19v-9.85c0-1.61-.4-2.45-1.44-2.45-.98,0-1.61.72-2.3,2.16v10.14h-2.36v-14Z"/>
          <path class="cls-13" d="m262.15,268.98h1.96l.2,1.79h.09c1.3-1.24,3.14-2.13,4.84-2.13,3.77,0,5.79,2.79,5.79,7.14,0,4.75-3,7.55-6.37,7.55-1.3,0-2.91-.66-4.18-1.82h-.06l.12,2.65v4.72h-2.39v-19.91Zm10.43,6.8c0-3.08-1.15-5.13-3.95-5.13-1.24,0-2.68.63-4.09,2.07v6.97c1.3,1.18,2.77,1.61,3.72,1.61,2.48,0,4.32-2.07,4.32-5.53Z"/>
          <path class="cls-13" d="m282.69,277.54v-6.63h-3.98v-1.79l4.06-.14.32-4.49h1.99v4.49h6.86v1.93h-6.86v6.66c0,2.51.84,3.8,3.54,3.8,1.3,0,2.33-.26,3.34-.63l.52,1.76c-1.27.46-2.62.83-4.38.83-4.09,0-5.42-2.33-5.42-5.79Z"/>
          <path class="cls-13" d="m295.97,288.71l.49-1.9c.37.12.84.2,1.27.2,1.96,0,3.14-1.24,3.83-2.97l.4-1.04-6.51-14.03h2.42l3.4,7.72c.55,1.24,1.15,2.71,1.73,4.06h.12c.49-1.33,1.04-2.79,1.5-4.06l3.02-7.72h2.3l-6.19,15.15c-1.04,2.77-2.74,4.87-5.93,4.87-.66,0-1.35-.12-1.84-.29Z"/>
          <path class="cls-20" d="m317.31,274.97c0-5.56,2.45-9.97,6.45-13.08l1.33,1.21c-3.86,3.26-5.65,7.03-5.65,11.87s1.79,8.61,5.65,11.87l-1.33,1.21c-4-3.11-6.45-7.52-6.45-13.08Z"/>
          <path class="cls-20" d="m332.12,286.84c3.86-3.26,5.65-7.03,5.65-11.87s-1.79-8.61-5.65-11.87l1.33-1.21c4,3.11,6.45,7.52,6.45,13.08s-2.45,9.97-6.45,13.08l-1.33-1.21Z"/>
          <path class="cls-2" d="m374.64,268.09c0-1.56-1.09-2.77-3.17-2.77-1.47,0-2.71.63-3.75,1.64l-1.41-1.3c1.3-1.35,3.08-2.33,5.3-2.33,3.2,0,5.36,1.76,5.36,4.49,0,3.92-5.21,4.72-4.72,8.44h-2.1c-.69-4.09,4.49-5.24,4.49-8.18Zm-5.36,12.99c0-1.38.98-2.22,2.13-2.22s2.13.84,2.13,2.22-.98,2.25-2.13,2.25-2.13-.86-2.13-2.25Z"/>
          <path class="cls-23" d="m400.04,276.01c0-4.7,3.57-7.38,7.81-7.38,2.28,0,3.95.92,5.1,2.04l-1.18,1.53c-1.15-.98-2.36-1.58-3.83-1.58-3.23,0-5.44,2.16-5.44,5.39s2.19,5.33,5.39,5.33c1.73,0,3.17-.78,4.32-1.76l1.07,1.56c-1.56,1.38-3.49,2.19-5.56,2.19-4.38,0-7.66-2.68-7.66-7.32Z"/>
          <path class="cls-23" d="m416.75,276.01c0-4.7,3.23-7.38,6.91-7.38s6.91,2.68,6.91,7.38-3.23,7.32-6.91,7.32-6.91-2.68-6.91-7.32Zm11.38,0c0-3.23-1.79-5.39-4.47-5.39s-4.47,2.16-4.47,5.39,1.79,5.33,4.47,5.33,4.47-2.13,4.47-5.33Z"/>
          <path class="cls-23" d="m435.27,269.12l4.06-.14h8.15v1.93h-12.21v-1.79Zm4-1.33c0-3.4,1.79-5.67,5.65-5.67,1.38,0,2.71.26,4.03.81l-.55,1.79c-1.15-.49-2.05-.66-3.26-.66-2.51,0-3.51,1.41-3.51,3.66v15.27h-2.36v-15.18Z"/>
          <path class="cls-23" d="m452.56,269.12l4.06-.14h8.15v1.93h-12.21v-1.79Zm4-1.33c0-3.4,1.79-5.67,5.65-5.67,1.38,0,2.71.26,4.03.81l-.55,1.79c-1.15-.49-2.05-.66-3.26-.66-2.51,0-3.51,1.41-3.51,3.66v15.27h-2.36v-15.18Z"/>
          <path class="cls-23" d="m468.83,275.95c0-4.55,3.4-7.32,7.14-7.32,4.03,0,6.4,2.62,6.4,6.57,0,.55-.06,1.07-.12,1.44h-11.84v-1.84h10.43l-.6.66c0-3.31-1.64-4.96-4.21-4.96s-4.84,1.96-4.84,5.44,2.36,5.47,5.47,5.47c1.67,0,3-.52,4.26-1.33l.86,1.56c-1.38.92-3.17,1.67-5.42,1.67-4.21,0-7.55-2.71-7.55-7.38Z"/>
          <path class="cls-23" d="m486.12,275.95c0-4.55,3.4-7.32,7.14-7.32,4.03,0,6.4,2.62,6.4,6.57,0,.55-.06,1.07-.12,1.44h-11.84v-1.84h10.43l-.6.66c0-3.31-1.64-4.96-4.21-4.96s-4.84,1.96-4.84,5.44,2.36,5.47,5.47,5.47c1.67,0,3-.52,4.26-1.33l.86,1.56c-1.38.92-3.17,1.67-5.42,1.67-4.21,0-7.55-2.71-7.55-7.38Z"/>
          <path class="cls-2" d="m507.75,280.88c0-1.44,1.04-2.45,2.33-2.45s2.33,1.01,2.33,2.45-1.04,2.45-2.33,2.45-2.33-.98-2.33-2.45Z"/>
          <path class="cls-13" d="m522.9,268.98h1.99l.23,3.31h.06c1.47-2.28,3.66-3.66,6.25-3.66,1.04,0,1.9.14,2.77.58l-.55,2.04c-.98-.32-1.5-.46-2.59-.46-2.1,0-4.09,1.07-5.76,4v8.18h-2.39v-14Z"/>
          <path class="cls-13" d="m537.97,275.95c0-4.55,3.4-7.32,7.14-7.32,4.03,0,6.4,2.62,6.4,6.57,0,.55-.06,1.07-.12,1.44h-11.84v-1.84h10.43l-.6.66c0-3.31-1.64-4.96-4.21-4.96s-4.84,1.96-4.84,5.44,2.36,5.47,5.47,5.47c1.67,0,3-.52,4.26-1.33l.86,1.56c-1.38.92-3.17,1.67-5.42,1.67-4.21,0-7.55-2.71-7.55-7.38Z"/>
          <path class="cls-13" d="m556.26,269.12l4.06-.14h8.15v1.93h-12.21v-1.79Zm4-1.33c0-3.4,1.79-5.67,5.65-5.67,1.38,0,2.71.26,4.03.81l-.55,1.79c-1.15-.49-2.05-.66-3.26-.66-2.51,0-3.51,1.41-3.51,3.66v15.27h-2.36v-15.18Z"/>
          <path class="cls-13" d="m579.65,270.91h-6.48v-1.93h8.87v14h-2.39v-12.07Zm-.95-6.71c0-1.09.81-1.84,1.9-1.84s1.9.75,1.9,1.84-.81,1.84-1.9,1.84-1.9-.72-1.9-1.84Z"/>
          <path class="cls-13" d="m594.95,278.28v-13.88h-4.96v-1.93h7.35v15.99c0,2.02,1.09,2.88,2.77,2.88.81,0,1.67-.2,2.62-.63l.6,1.79c-1.3.55-2.22.83-3.75.83-3,0-4.64-1.73-4.64-5.04Z"/>
          <path class="cls-13" d="m612.23,278.28v-13.88h-4.96v-1.93h7.35v15.99c0,2.02,1.09,2.88,2.77,2.88.81,0,1.67-.2,2.62-.63l.6,1.79c-1.3.55-2.22.83-3.75.83-3,0-4.64-1.73-4.64-5.04Z"/>
          <path class="cls-20" d="m628.42,274.97c0-5.56,2.45-9.97,6.45-13.08l1.33,1.21c-3.86,3.26-5.65,7.03-5.65,11.87s1.79,8.61,5.65,11.87l-1.33,1.21c-4-3.11-6.45-7.52-6.45-13.08Z"/>
          <path class="cls-20" d="m643.23,286.84c3.86-3.26,5.65-7.03,5.65-11.87s-1.79-8.61-5.65-11.87l1.33-1.21c4,3.11,6.45,7.52,6.45,13.08s-2.45,9.97-6.45,13.08l-1.33-1.21Z"/>
          <path class="cls-2" d="m680.59,270.56c0-1.44,1.04-2.45,2.33-2.45s2.33,1.01,2.33,2.45-1.04,2.45-2.33,2.45-2.33-.98-2.33-2.45Zm0,10.31c0-1.44,1.04-2.45,2.33-2.45s2.33,1.01,2.33,2.45-1.04,2.45-2.33,2.45-2.33-.98-2.33-2.45Z"/>
          <path class="cls-23" d="m711.15,276.01c0-4.7,3.57-7.38,7.81-7.38,2.28,0,3.95.92,5.1,2.04l-1.18,1.53c-1.15-.98-2.36-1.58-3.83-1.58-3.23,0-5.44,2.16-5.44,5.39s2.19,5.33,5.39,5.33c1.73,0,3.17-.78,4.32-1.76l1.07,1.56c-1.55,1.38-3.49,2.19-5.56,2.19-4.38,0-7.66-2.68-7.66-7.32Z"/>
          <path class="cls-23" d="m727.86,276.01c0-4.7,3.23-7.38,6.91-7.38s6.91,2.68,6.91,7.38-3.23,7.32-6.91,7.32-6.91-2.68-6.91-7.32Zm11.38,0c0-3.23-1.79-5.39-4.47-5.39s-4.47,2.16-4.47,5.39,1.79,5.33,4.47,5.33,4.47-2.13,4.47-5.33Z"/>
          <path class="cls-23" d="m746.38,269.12l4.06-.14h8.15v1.93h-12.21v-1.79Zm4-1.33c0-3.4,1.79-5.67,5.65-5.67,1.38,0,2.71.26,4.03.81l-.55,1.79c-1.15-.49-2.04-.66-3.25-.66-2.51,0-3.51,1.41-3.51,3.66v15.27h-2.36v-15.18Z"/>
          <path class="cls-23" d="m763.66,269.12l4.06-.14h8.15v1.93h-12.21v-1.79Zm4-1.33c0-3.4,1.79-5.67,5.65-5.67,1.38,0,2.71.26,4.03.81l-.55,1.79c-1.15-.49-2.04-.66-3.25-.66-2.51,0-3.51,1.41-3.51,3.66v15.27h-2.36v-15.18Z"/>
          <path class="cls-23" d="m779.94,275.95c0-4.55,3.4-7.32,7.14-7.32,4.03,0,6.4,2.62,6.4,6.57,0,.55-.06,1.07-.12,1.44h-11.84v-1.84h10.43l-.61.66c0-3.31-1.64-4.96-4.21-4.96s-4.84,1.96-4.84,5.44,2.36,5.47,5.47,5.47c1.67,0,3-.52,4.26-1.33l.86,1.56c-1.38.92-3.17,1.67-5.42,1.67-4.21,0-7.55-2.71-7.55-7.38Z"/>
          <path class="cls-23" d="m797.22,275.95c0-4.55,3.4-7.32,7.14-7.32,4.03,0,6.4,2.62,6.4,6.57,0,.55-.06,1.07-.12,1.44h-11.84v-1.84h10.43l-.6.66c0-3.31-1.64-4.96-4.21-4.96s-4.84,1.96-4.84,5.44,2.36,5.47,5.47,5.47c1.67,0,3-.52,4.26-1.33l.86,1.56c-1.38.92-3.17,1.67-5.42,1.67-4.21,0-7.55-2.71-7.55-7.38Z"/>
          <path class="cls-2" d="m818.86,280.88c0-1.44,1.04-2.45,2.33-2.45s2.33,1.01,2.33,2.45-1.04,2.45-2.33,2.45-2.33-.98-2.33-2.45Z"/>
          <path class="cls-13" d="m831.56,276.01c0-4.55,3.03-7.38,6.34-7.38,1.67,0,2.97.66,4.21,1.79h.06l-.12-2.56v-5.39h2.39v20.51h-1.96l-.2-1.84h-.09c-1.15,1.18-2.82,2.19-4.58,2.19-3.63,0-6.05-2.65-6.05-7.32Zm10.49,3.23v-6.97c-1.27-1.18-2.45-1.61-3.66-1.61-2.42,0-4.38,2.13-4.38,5.33s1.55,5.33,4.12,5.33c1.38,0,2.68-.69,3.92-2.07Z"/>
          <path class="cls-13" d="m851.29,268.98h1.99l.23,3.31h.06c1.47-2.28,3.66-3.66,6.25-3.66,1.04,0,1.9.14,2.77.58l-.55,2.04c-.98-.32-1.5-.46-2.59-.46-2.1,0-4.09,1.07-5.76,4v8.18h-2.39v-14Z"/>
          <path class="cls-13" d="m873.47,270.91h-6.48v-1.93h8.87v14h-2.39v-12.07Zm-.95-6.71c0-1.09.81-1.84,1.9-1.84s1.9.75,1.9,1.84-.81,1.84-1.9,1.84-1.9-.72-1.9-1.84Z"/>
          <path class="cls-13" d="m884.36,268.98h1.96l.2,2.36h.12c1.47-1.53,3.08-2.71,5.27-2.71,3.31,0,4.84,1.96,4.84,5.65v8.7h-2.39v-8.38c0-2.65-.92-3.89-3.2-3.89-1.67,0-2.79.84-4.41,2.51v9.77h-2.39v-14Z"/>
          <path class="cls-13" d="m901.99,262.47h2.39v13.86h.12l7.52-7.35h2.74l-10.37,10.2v3.8h-2.39v-20.51Zm5.39,13.08l1.44-1.56,6.68,8.99h-2.65l-5.47-7.43Z"/>
          <path class="cls-20" d="m922.24,274.97c0-5.56,2.45-9.97,6.45-13.08l1.33,1.21c-3.86,3.26-5.65,7.03-5.65,11.87s1.79,8.61,5.65,11.87l-1.33,1.21c-4-3.11-6.45-7.52-6.45-13.08Z"/>
          <path class="cls-20" d="m937.05,286.84c3.86-3.26,5.65-7.03,5.65-11.87s-1.79-8.61-5.65-11.87l1.33-1.21c4,3.11,6.45,7.52,6.45,13.08s-2.45,9.97-6.45,13.08l-1.33-1.21Z"/>
          <path class="cls-2" d="m956.46,287.62c2.45-1.09,3.66-2.65,3.63-5.04l-.52-2.65,1.61,2.28c-.46.52-1.04.66-1.61.66-1.24,0-2.25-.72-2.25-2.16s1.07-2.19,2.3-2.19c1.7,0,2.59,1.41,2.59,3.69,0,3.37-1.9,5.73-5.07,6.91l-.69-1.5Zm.66-17.05c0-1.44,1.04-2.45,2.33-2.45s2.33,1.01,2.33,2.45-1.04,2.45-2.33,2.45-2.33-.98-2.33-2.45Z"/>
        </g>
      </g>
    </g>
  </g>
</svg>